<svg version="1.1" xmlns="http://www.w3.org/2000/svg" xmlns:xlink="http://www.w3.org/1999/xlink" x="0px" y="0px" viewBox="0 0 226 102" width="226px" height="102px" enable-background="new 0 0 226 102" xml:space="preserve">
<g>
	<g>
		<path fill="#FFFFFF" d="M148.2,26.4l0.1-0.1H148v0.1H148.2z M134.1,26L134.1,26v-0.4c-0.4-0.2-0.6-0.3-0.6-0.6h-0.2l-0.2,0.1
			l0.3,0.2C133.3,25.8,133.5,26,134.1,26z M134.1,24.5l0.5,0.1l-0.2,0.9v0.1c0.4,0.2,0.6,0.4,0.6,0.5c0,0.2-0.1,0.4-0.2,0.6
			c0.4,0.4,0.9,0.7,1.7,1c0.1,0,0.2-0.1,0.2-0.3h0.3l0.6,0.7h0.1v-0.1c-0.1-0.2-0.2-0.3-0.2-0.4v-0.1h0.1c0.1,0.3,0.3,0.4,0.4,0.4
			l-0.1,0.1c0,0.1,0.3,0.2,0.9,0.4c2.7,0.4,4.1,1.2,4.1,2.3c0,1.3-1,2-2.9,2l-0.6-0.1v0.1c0.1,0,0.2,0.1,0.3,0.3v0.2h-0.1
			c-0.3,0-0.4-0.1-0.5-0.4l0.2-0.1v-0.1c-0.6-0.1-1.4-0.4-2.3-1.1c-0.6-0.7-1-1-1.2-1c-0.3-0.7-0.7-1.5-1.4-2.2h-0.9l-0.3,0.3V29
			c0,0.1,0.1,0.2,0.3,0.2l-0.3,0.6v3h0.2l0.1-0.1l0.6,0.4h0.1c0,0.2-0.1,0.3-0.3,0.3c-0.2,0-0.3-0.1-0.5-0.3h-0.1v0.5
			c0,0.3,0.1,0.5,0.3,0.6h0.8c0.2,0,0.7-0.3,1.4-1l1.1,0.4l0.3-0.2h0.2l0.1,0.1v0.1l-0.1,0.1v0.1c0.1,0.3,1.1,0.4,2.9,0.6l1.8-0.2
			c2.9-0.9,4.3-2.6,4.3-5.1c0-0.9-0.2-1.7-0.5-2.3c0.3-0.8,0.8-1.2,1.6-1.2v0c1,0.4,1.5,0.8,1.5,1.3l-0.1,1.2v1.8
			c0,3,1.4,4.5,4.2,4.5c3.3,0,5-2,5-6.1c0-0.2-0.3-0.3-0.9-0.3h-0.1c-0.5,0-0.7,0.4-0.7,1.1c-0.2,1.6-0.8,2.5-1.6,2.5h-0.2
			c-0.8,0-1.1-0.6-1.1-1.7v-2.6c0.1-0.5,0.3-0.9,0.8-1.3c0.6-0.2,0.9-0.3,0.9-0.4v-0.1l-0.4-0.4c-0.5-0.1-0.8-0.3-0.8-0.4h-0.1v0.1
			h-0.1c0-0.2-0.1-0.3-0.2-0.3h-0.1l-0.1,0.1v-0.1l-0.1-0.1v-1.6l0.1-1v-0.1l0.2,0.1c0.1,0,0.2,0,0.2-0.1l-0.1-0.1v-0.1l0.1-0.1
			c0.5-0.2,0.8-0.3,0.8-0.4l0.3,0.1c0.3,0,0.6-0.1,0.7-0.4l0.3,0.1c0.8,0,1.3-0.1,1.4-0.2c0-0.2,0.3-0.5,1-0.6
			c1.5-0.7,3.1-1.7,4.8-3.1c0.3-0.4,0.4-0.6,0.5-0.6c2.1-2.1,3.1-4.7,3.1-7.6c0-1.6-0.4-2.9-1.1-4c-1.9-2.7-4.7-4-8.6-4
			c-2,0-4,0.5-5.9,1.6l-0.2,0.1c-1.3,1-1.9,1.6-1.9,2.1v0.1l0.1,0.1h0.1l1.3-1.1c2.2-1.3,4.3-2,6.3-2c1.4,0,2.7,0.3,4,0.8
			c2.9,1.3,4.3,3.2,4.3,5.6v0.7c0,1.2-0.3,2.3-0.8,3.4c-0.6,1.2-1,1.9-1.1,1.9c-0.9,0.9-1.5,1.5-2,1.9v0.1l0.1,0.2h0.1l0.1-0.1h0.1
			v0.1c0.2,0.1,0.3,0.1,0.3,0.2v0.1l-0.1,0.1l-0.4-0.3h-0.1l-0.2,0.2l-0.4-0.1c-1.1,0.7-2.3,1.4-3.5,1.8l0.1,0.4l-0.1,0.1h-0.1
			c-0.1,0-0.2-0.1-0.3-0.4c-0.3,0-0.4,0.1-0.4,0.3h-0.3c-0.9,0.3-1.7,0.4-2.3,0.4h-0.2v-1.1h-0.1l-0.1,0.7h-0.1v-4l-0.1-0.1l-2.1,0
			c-0.2,1.2-0.3,1.9-0.5,2c-0.8,1.3-1.7,2.1-2.8,2.6c-0.8,0.2-1.3,0.4-1.3,0.4v1.3c0,0.1,0.3,0.2,0.8,0.2h1.5v4l-0.3,0.1h-0.1
			l-0.1-0.1c-0.6,0.2-1,0.4-1.2,0.6c-0.4-0.3-0.7-0.4-1.1-0.4h-0.3c-0.5,0-1,0.2-1.4,0.6l-0.1-0.1c-1-0.5-2.9-1.1-5.7-1.8h-0.1
			l-0.1,0.1c-0.9-0.4-1.5-0.8-1.8-1.2h-0.4l-0.3,0.3v0.1l-0.5-0.2v-0.6c0-0.1-0.1-0.2-0.3-0.3h-0.1l-0.1,0.1l0.3,0.6v0.1l-0.6-0.3
			c-0.1,0-0.3,0.3-0.7,0.9h-0.1l-0.3-0.8v-0.1l0.1-0.1l0.6,0.1h0.1v-0.1c0-0.1-0.1-0.1-0.2-0.1c0-0.3-0.2-0.5-0.6-0.6
			c-0.2,0.6-0.3,1.1-0.3,1.7v0.5c0,0.4,0,0.6,0.1,0.8L134.1,24.5z M134.2,29c0,0.2-0.1,0.3-0.2,0.4h-0.1l-0.2-0.2v-0.1
			c0-0.2,0.1-0.4,0.3-0.4L134.2,29L134.2,29z M134.8,31.2l-0.1,0.1c-0.2,0-0.3-0.1-0.4-0.2v-0.2c0-0.2,0.1-0.3,0.2-0.4h0.1
			c0.2,0.1,0.3,0.2,0.3,0.4V31.2z M135.6,33l-0.1,0.1h-0.1c-0.1-0.1-0.3-0.2-0.3-0.4l0.1-0.1h0.1C135.3,32.8,135.5,32.9,135.6,33
			L135.6,33z M162.4,15.1c0.2,0,0.3,0.1,0.3,0.2v0.2l-0.1,0.1l-0.3-0.3V15.1z M161.8,15.6l0.1,0.1v0.1L161.8,15.6L161.8,15.6z
			 M159.7,18.5l-0.1-0.1v-0.1h0.1V18.5z M160.5,17.3l0.6-0.6c0.2,0.1,0.3,0.3,0.4,0.5l-0.2,0.4l-0.7-0.1l-0.9,0.3l-0.3-0.1
			C159.5,17.6,159.8,17.5,160.5,17.3z M158.8,17.6l0.2-0.2c0.1,0,0.2,0.1,0.3,0.3h-0.1c0,0.2-0.1,0.3-0.2,0.3L158.8,17.6L158.8,17.6
			z M158.7,18.8h0.1l0.1,0.2h-0.1L158.7,18.8L158.7,18.8z M158,18.8l0.1,0.1v0.1L158,19V18.8z M153.9,20.6l0.1-0.1h0.1l0.1,0.3
			c0,0.1-0.1,0.2-0.3,0.3V20.6z M145,30.8c-0.1,0-0.2-0.1-0.4-0.3l0.1-0.3C144.9,30.3,144.9,30.4,145,30.8L145,30.8z M144.5,27.6
			h0.2c0.3,0.2,0.4,0.4,0.4,0.6c0,0.1-0.1,0.2-0.3,0.3c-0.2,0-0.3-0.2-0.4-0.6L144.5,27.6z M140.9,28.7L140.9,28.7l-0.1-0.1
			c-0.1-0.3-0.2-0.5-0.4-0.5v-0.3l0.6-0.1c0.1,0,0.2,0.1,0.3,0.4L140.9,28.7z M140.4,25.2l0.3,0.1h0.1l0.1-0.1l-0.1-0.4
			c0-0.1,0.2-0.2,0.5-0.4c0.2,0,0.3,0.6,0.3,1.7l-0.3,0.2l-1-0.4L140.4,25.2z M139.4,27.6c0-0.2,0.1-0.3,0.3-0.6
			c0.2,0,0.4,0.1,0.6,0.4l-0.4-0.1L139.4,27.6L139.4,27.6L139.4,27.6z M138.4,23.8L138.4,23.8l0.3,0.2V24l-0.1,0.1
			C138.5,24.1,138.4,24,138.4,23.8L138.4,23.8z M138,25.2l0.1-0.1h0.1l0.1,0.4v0.1h-0.1l-0.2-0.2V25.2z M135.8,23.5
			c0.2,0.1,0.3,0.2,0.3,0.4V24h-0.1l-0.4-0.3L135.8,23.5z M134.9,23.1l0.3,0.3v0.1l-0.1,0.1c-0.1,0-0.2-0.1-0.3-0.3V23.1z
			 M135.3,24.2c0.2,0.1,0.3,0.2,0.4,0.3l0.4-0.1c0.1,0,0.3,0.1,0.4,0.2l-0.1,0.4l0.1,0.1c0,0.2-0.2,0.5-0.5,0.7h-0.3
			c0-0.3-0.1-0.4-0.3-0.4c0-0.3-0.2-0.7-0.6-1.1L135.3,24.2z M134.4,23.1L134.4,23.1l0.1,0.3h-0.1V23.1z M133.6,23.5l0.1-0.1h0.1
			l-0.2,0.3h-0.1V23.5z M129.1,20L129.1,20l-0.2,0.1v0.1h0.2V20z M73.1,20.7h0.2l0.5,0.2c0,0.5,0.1,0.7,0.2,0.7h0.1l0.1-0.1L73.7,20
			v-0.2l0.2-0.2h0.3v0.1L74,20c0,0.6,0.3,1.1,0.9,1.5c0.1,0.5,0.2,0.7,0.3,0.7v-0.6l0.7-0.2L75.8,21c0-0.1,0.1-0.2,0.2-0.2L76,20.4
			l0.2-0.3h0.2l0.4,0.1c0.2-0.3,0.7-0.5,1.4-0.6v-0.1l-0.2-0.3v-0.2c0-0.3,0.2-0.5,0.5-0.6c0.4,0.3,0.6,0.5,0.6,0.6l-0.1,0.5h0.1
			c0.9,0,1.6,0.2,2.2,0.5l0.5-0.6h0.1c0.1,0,0.2,0.2,0.3,0.4L81.7,20c0,0.1,0.2,0.2,0.6,0.3l1,0.9c1.6,2.1,2.5,3.2,2.7,3.3h0.9
			c0.2,0,0.2-0.3,0.2-0.6V18c0-0.4-0.1-0.6-0.2-0.6h-1l-1.5,1.3c-2.4-0.9-4-1.3-5-1.3L78,17.5c-0.4,0-0.6,0.2-0.7,0.7l0.1,0.4v0.2
			c-0.4,0.5-0.6,0.7-0.6,0.9l-0.1-0.1l-0.4,0.1l-1.1-0.5l0.1-0.4c0-0.2-0.1-0.2-0.2-0.2h-0.1c-0.9,0.6-1.7,1.3-2.3,2.3l0.2,0.2v0.1
			h-0.1l-0.1-0.1h-0.2l-0.2,0.4v0.2l0.4-0.1C73,21.6,73.1,21.3,73.1,20.7z M86.2,20.6L86.2,20.6c0.2-0.1,0.3,0.1,0.4,0.3h-0.1
			L86.4,21l-0.2-0.2V20.6z M85.2,20.8L85.2,20.8c0.2,0,0.4,0.2,0.6,0.6l-0.2,0.2h-0.2c-0.1,0-0.2-0.2-0.3-0.6L85.2,20.8z M84.8,22.4
			c0.1-0.2,0.3-0.3,0.5-0.4c0.3,0,0.5,0.1,0.6,0.3v0.2c0,0.3-0.1,0.5-0.4,0.6h-0.1l-0.6-0.6V22.4z M83.8,18.8l0.4,0.2l-0.2,0.2
			l-0.2-0.2V18.8z M84.1,19.4h0.2c0.2,0.1,0.3,0.3,0.3,0.5c0,0.3-0.1,0.4-0.3,0.5v-0.1c-0.2,0-0.4-0.1-0.4-0.4
			C83.9,19.6,84,19.4,84.1,19.4z M82.9,20.2l0.2-0.2h0.2l0.1,0.2l-0.1,0.2L82.9,20.2L82.9,20.2z M28.8,17.9l-0.1-0.8h-0.3L28,17.4
			C28.1,17.7,28.4,17.9,28.8,17.9z M129.3,19c0.2,0,0.3,0.1,0.3,0.3l0.8,0.1v-0.1l0.1-0.1v-0.9l-0.1-0.1h-0.8l-0.3,0.2l-0.1-0.2
			l-0.1,0.1v0.1l0.1,0.3C129.2,18.8,129.3,18.9,129.3,19z M130,19.1L130,19.1c-0.1,0.1-0.1,0-0.1-0.1L130,19.1z M129.8,18.9
			L129.8,18.9L129.8,18.9L129.8,18.9z M129.7,19L129.7,19L129.7,19L129.7,19L129.7,19z M129.3,21L129.3,21l-0.1-0.2V21H129.3z
			 M187.3,18.3h-0.1v0.1h0.1V18.3z M129.8,19.5l-0.1-0.1v0.1H129.8z M100,26.4c0.3,1.7,0.6,2.9,0.9,3.6c0.8,1.4,1.5,2.3,2.2,2.6
			c0.1,0.2,0.3,0.4,0.6,0.6l0.3-0.2c0.2,0,0.4,0.1,0.4,0.3l0.1-0.1c0.2,0,0.4,0.1,0.5,0.3l-0.1,0.2v0.1c0.6,0.2,1.3,0.4,2,0.4
			l0.3-0.2h0.1v0.1l-0.1,0.1h0.1l0.1,0.1h0.8c0.7,0,1.1,0,1.3-0.1l-0.1-0.2c0-0.1,0.1-0.2,0.4-0.3l0.2,0.2l-0.1,0.2v0.1
			c0.8-0.2,1.2-0.3,1.2-0.4c0-0.1-0.1-0.1-0.2-0.1l0.4-0.9c0.2,0.1,0.3,0.1,0.3,0.2c0.2,0,0.4-0.1,0.6-0.3l0.5,0.1h0.1l0.1-0.1
			c1.4-1.6,2.1-2.7,2.1-3.4v-0.4c-0.1-0.2-0.2-0.3-0.4-0.3c-0.1,0-0.1,0.2-0.2,0.5h-0.1c0-0.3,0-0.5-0.1-0.5l-0.4,0.1
			c-0.2,0.9-0.9,1.8-2.1,2.9c-0.2,0-0.4,0.3-0.5,0.8h-0.1l-0.1-0.1l0.1-0.2V32l-0.1-0.1c-0.6,0.3-1.2,0.4-1.6,0.4H109
			c-0.6,0-1.1-0.1-1.5-0.4c-0.4,0-0.7-0.2-0.9-0.6c-0.5,0-0.8-0.2-0.8-0.5l0.1-0.1c-0.6-1.4-0.9-2.6-0.9-3.6
			c0.1-0.5,0.4-0.9,0.8-1.3c0.6-0.1,0.9-0.3,0.9-0.4c-0.3-0.4-0.9-0.6-1.6-0.6h-0.1c0-0.9,0.3-2,0.8-3.2c0.4-0.8,1-1.4,1.8-1.6
			c0.4,0,0.6-0.1,0.6-0.3l0.1,0.1c1.3,0,2.5,0.7,3.6,2c0.9,1.5,1.5,2.3,1.7,2.5h0.6c0.2,0,0.3-0.3,0.3-0.9v-3l-0.1-0.2h0.1v-0.3
			c0.6,0.1,1,0.5,1,1.2v3.6h-0.3c-0.6,0-1.1,0.2-1.5,0.7v0.1l0.1,0.1c1.1,0.3,1.6,0.7,1.6,1.5v1.3c0,1.1,0.1,2,0.4,2.8
			c0.8,2.1,2.4,3.2,4.7,3.2c2.1,0,3.9-1.1,5.4-3.2v2.8l0.2,0.2h6.6l0.1-0.1v-1.3l-0.1-0.2l-1-0.1c-1,0-1.5-0.5-1.5-1.5v-4
			c0-0.4,0.2-0.8,0.7-1.1c0.7-0.2,1-0.4,1-0.4v-0.1c0-0.1-0.3-0.3-0.7-0.5v0.1l-0.1,0.1V25c-0.2,0-0.4-0.1-0.6-0.3l-0.3,0.2
			c-0.3,0-0.6-0.1-0.8-0.3h-0.2l-0.1,0.1c-0.4-0.1-0.6-0.3-0.6-0.6h-0.1v0.1l0.1,0.1l-0.3-0.1l-0.9-0.8c-0.3,0.1-0.4,0.2-0.4,0.3
			v0.1l0.1,0.1c-0.1,0-0.2,0-0.2,0.1V24c0,0.3,0.2,0.5,0.6,0.9c-0.4,0-0.7-0.4-0.8-1.1l-0.2,0.1h-0.1l-0.1-0.3l0.1-0.2l0.4,0.1
			l0.4-0.3l-0.3-0.1v-0.1h0.1l0.4,0.1h0.7l0.1-0.4l-0.1-0.1c0.2-0.5,0.3-0.8,0.4-0.8h0.1l-0.2-0.4v-0.1c0.3,0.3,0.4,0.4,0.5,0.4
			l0.2-0.1c-0.4-1-0.7-1.5-0.8-1.5l-0.1,0.1l-0.2-0.1h-0.1c-0.4,0-0.6,0.1-0.6,0.4l-0.3,0.3v0.3c0.4,0.4,0.7,0.9,0.9,1.5V23h-0.1
			c0-0.3-0.3-0.8-1-1.6c0-0.6,0.4-1,1.3-1.1h0.1c0-0.1-0.3-0.5-0.9-1.1l-0.5-1h-3.5c-0.4,0-0.6,0.1-0.6,0.4v0.5l0.1,0.4
			c0,0.2,0.7,0.3,2,0.3c0.6,0,0.9,0.7,0.9,2.1v2l0.1,0.1l-0.1,0.1v0.7h-0.3c-0.6,0-1.1,0.2-1.5,0.6v0.1c1.1,0.4,1.7,0.8,1.7,1.4
			l-0.1,0.1v0.7c-0.5,2.5-1.6,3.8-3.2,3.8h-0.3c-1.5,0-2.3-1.1-2.3-3.3v-1.2c0-0.7,0.5-1.1,1.6-1.4v-0.2c0-0.2-0.4-0.4-1.2-0.6h-0.4
			v-6.4l-0.1-0.1h-5.4c0-0.1-0.1-0.1-0.2-0.1h-0.3c-0.1,0-0.3,0-0.4,0.1c-0.2,0-0.3,0.1-0.4,0.2v0.1c-0.2,0.2-0.5,0.4-0.8,0.8
			c-1.5-0.6-2.7-0.9-3.7-0.9h-0.6c-0.6,0-1,0-1.4,0.1v0.1h0.1v0.2h-0.1c-0.1,0-0.1-0.1-0.2-0.3l-0.6,0.1c-2,0.6-3.5,1.6-4.4,2.9
			l0.1,0.2v0.1h-0.1l-0.1-0.1h-0.1c-0.7,0.9-1.2,1.9-1.4,3.2l-0.3-0.1c-0.6,0-1.1,0.2-1.5,0.6v0.3l0.1,0.1
			C99,25.5,99.5,25.8,100,26.4z M113.3,30.7h0.3v0.1l-0.1,0.1L113.3,30.7L113.3,30.7z M112.7,30.7L112.7,30.7l0.1,0.1l-0.1,0.4h-0.1
			L112.7,30.7z M107.9,33.2L107.9,33.2l0.1,0.6h-0.1l-0.1-0.2L107.9,33.2z M130.5,25.7h0.2v0.1l-0.1,0.1h-0.1V25.7z M129.5,26.5
			L129.5,26.5l-0.1-0.1l0.1-0.1V26.5z M129.3,25.4l0.2-0.1h0.1v0.2h-0.3V25.4z M129.2,26.3l-0.2-0.2V26h0.3l0.1,0.1L129.2,26.3z
			 M129,25h0.3V25l-0.3,0.1h-0.1L129,25z M128.6,24.9l0.1,0.2h-0.1v0.1h-0.1l-0.1-0.1L128.6,24.9z M128.3,25L128.3,25l-0.3-0.1
			l0.1-0.2h0.2l0.1,0.1L128.3,25z M127.9,24.3l0.2-0.1l0.1,0.1v0.2h-0.2l-0.1-0.1V24.3z M127.8,19.8h0.1v0.1L127.8,19.8L127.8,19.8z
			 M127.1,19.9h0.1V20L127.1,19.9L127.1,19.9z M127.1,20.3h0.2v0.1h-0.2V20.3z M126.7,20.5h0.2v0.2h-0.1L126.7,20.5L126.7,20.5z
			 M126.4,20.4h0.1v0.1L126.4,20.4L126.4,20.4z M114.4,19.8C114.4,19.8,114.5,19.8,114.4,19.8l0.1,0.3L114.4,19.8L114.4,19.8z
			 M114.4,21.9v0.1h-0.1l-0.1-0.3v-0.1h0.1L114.4,21.9z M114.1,21L114.1,21l0.1,0.1l-0.1,0.2h-0.1V21z M113.7,21.4l0.1,0.1h-0.1
			V21.4z M112.3,19.6l0.3,0.3h-0.1l-0.2-0.2V19.6z M112.3,21.5L112.3,21.5l0.2,0.4h-0.1l-0.1-0.1V21.5z M111.8,20.1L111.8,20.1
			l0.1,0.4h-0.1l-0.1-0.2L111.8,20.1z M110.8,20.1h-0.1l-0.1-0.3v-0.1C110.6,19.7,110.7,19.9,110.8,20.1z M110.2,18.6h0.2l0.1,0.3
			L110.2,18.6L110.2,18.6z M108.7,18.8h0.3V19l-0.3,0.2L108.7,18.8z M107.3,18.6l0.3,0.3h-0.1L107.3,18.6L107.3,18.6z M106.9,18.8
			L107,19V19h-0.1V18.8z M106.1,20.2v0.3l-0.2-0.2L106.1,20.2z M105.3,21.5l0.1,0.2v0.1l-0.2-0.3H105.3z M104.5,27.2l-0.1-0.1v-0.3
			h0.1L104.5,27.2L104.5,27.2z M104.6,32.4v-0.2h0.1l0.1,0.3L104.6,32.4L104.6,32.4z M104.8,30.1L104.8,30.1l0.1,0.1l-0.1,0.2h-0.1
			v-0.1L104.8,30.1z M104.8,25.3L104.8,25.3l0.1-0.2v0.2H104.8z M106.3,33.2L106.3,33.2l0.2-0.1l0.1,0.3h-0.1
			C106.4,33.4,106.3,33.4,106.3,33.2L106.3,33.2z M105.6,31.7h0.3l-0.2,0.2L105.6,31.7L105.6,31.7z M105.7,32.6l0.3,0.1h0.1
			l-0.1,0.6h-0.1l-0.1-0.1h-0.1c-0.1,0-0.2,0.1-0.2,0.3c-0.1,0-0.2-0.1-0.2-0.3l-0.5-0.3L105.7,32.6z M104.8,19.7L104.8,19.7
			l0.1,0.1l-0.1,0.1V19.7z M104.6,20.4c0.2,0.1,0.3,0.2,0.3,0.4v0.1l-0.3-0.2V20.4z M104.6,29.4L104.6,29.4l0.1,0.2v0.1l-0.1-0.1
			V29.4z M104.4,23.1L104.4,23.1l0.1,0.3h-0.2L104.4,23.1z M104.4,31.4L104.4,31.4l-0.2,0.1c-0.3-0.1-0.5-0.2-0.5-0.3v-0.1
			c0.2,0,0.3-0.1,0.4-0.3C104.2,30.8,104.3,31,104.4,31.4z M103.9,29.8l0.1-0.1l0.1,0.2L103.9,29.8L103.9,29.8z M103.7,20.7l0.1-0.4
			h0.1v0.1L103.7,20.7L103.7,20.7L103.7,20.7z M103.4,24.2c0-0.2,0.1-0.3,0.2-0.4c0,0.4-0.1,0.6-0.2,0.6V24.2z M103.1,21.1
			L103.1,21.1l0.1,0.5h-0.1V21.1z M103,30.3L103,30.3c0.3-0.1,0.4,0,0.6,0.1l-0.1,0.1h-0.2l-0.3-0.1V30.3z M102.2,26.2L102.2,26.2
			l0.2-0.3l-0.1,0.3H102.2z M102.6,26.6L102.6,26.6l-0.3,0.2v-0.2H102.6z M102.4,24.8L102.4,24.8l-0.3-0.2l0.3,0.1V24.8z
			 M102.1,23.6L102.1,23.6l0.1,0.1l-0.1,0.2l-0.1-0.1C102.1,23.8,102.1,23.8,102.1,23.6z M101.8,24.9l0.1-0.3h0.1v0.1l-0.1,0.3h-0.1
			V24.9z M100.7,29L100.7,29l0.1,0.1h0.1L101,29v0.3l-0.3-0.1L100.7,29z M99.8,25.5v0.1l-0.2,0.2C99.6,25.6,99.7,25.5,99.8,25.5z
			 M224.7,53.5h-0.6l-0.1-0.1c0-2.3-0.6-4.7-1.9-7.1c-2.8-4.8-6.4-7.1-10.6-7.1h-1.2c-2.1,0-4,0.6-5.7,1.7V41c0.2,0,0.2,0.1,0.2,0.2
			v0.1c0,0.1-0.1,0.2-0.3,0.2c-0.2,0-0.2-0.1-0.2-0.3h-0.2c-0.9,0.6-1.4,1.1-1.4,1.4l-0.3-0.1c-3.3,3.4-4.9,7.1-4.9,11l-0.2,0.1v0.1
			l0.1,0.1v0.1l-0.2,0.2H197l-0.5-0.3c-0.1,0-0.2,0-0.4,0.1c-0.2-0.1-0.5-0.2-0.7-0.2h-0.6l-0.1-0.1c0-2.3-0.6-4.7-1.9-7.1
			c-2.8-4.8-6.4-7.1-10.6-7.1H181c-2.1,0-4,0.6-5.7,1.7V41c0.2,0,0.2,0.1,0.2,0.2v0.1c0,0.1-0.1,0.2-0.3,0.2c-0.2,0-0.2-0.1-0.2-0.3
			h-0.2c-0.9,0.6-1.4,1.1-1.4,1.4l-0.3-0.1c-3.3,3.4-4.9,7.1-4.9,11l-0.2,0.1v0.1l0.1,0.1v0.1l-0.2,0.2h-0.2l-0.5-0.3
			c-0.2,0-0.6,0.2-1,0.6l0.1,0.3c1.2,0.3,1.8,0.7,1.8,1.3l1.2,4.5c0.3,0.1,0.5,0.1,0.5,0.2l-0.2,0.2v0.1l0.6,1.5
			c0.5,0.3,0.7,0.7,0.7,1l0.4-0.1h0.1l-0.2,0.4l0.5,0.1V64l-0.3,0.1l0.2,0.2c0.1,0,0.2-0.1,0.2-0.2h0.2c0.2,0,0.4,0.5,0.6,1.4
			l0.4-0.1h0.2c0,0.6,0.3,1,0.8,1.3h0.2c0-0.2,0.1-0.3,0.3-0.3c0.2,0,0.3,0.1,0.3,0.2v0.2l-0.2,0.2v0.2l0.9,0.4l0.2-0.5
			c0.2,0.1,0.3,0.3,0.3,0.6v0.1l-0.2-0.1h-0.1V68l0.2,0.1c0.1,0,0.3-0.3,0.6-0.7l-0.1-0.3l0.2-0.4l0.3,0.2h0.5l0.1,0.2h0.1l0.1-0.1
			l-0.1-0.4l0.2-0.2l0.8,0.3h0.1v-0.2c-0.1,0-0.4-0.2-0.7-0.5h-0.2l-0.1,0.1l-0.2-0.5c-0.5-0.9-0.9-1.7-1.1-2.4
			c-0.1-1-0.4-1.4-0.8-1.4c0-0.1,0.1-0.2,0.4-0.2c-0.1-0.9-0.2-1.4-0.4-1.4h-0.2c-0.2,0.1-0.3,0.3-0.3,0.6h-0.1l-0.2-1.3v-0.1h0.8
			l0.1,0.1l0.1-0.1l-0.2-2.8l0.2-0.8l-0.1-0.3c0.2,0,0.5-0.2,0.9-0.6c0.7-0.3,1.1-0.5,1.1-0.6c-0.4-0.5-0.9-0.7-1.4-0.7h-0.8l0.1-1
			v-0.4c0-2.2,0.2-4.3,0.7-6.3l-0.1-0.1l-1.8,0.3h-0.2c-0.5,0-0.8-0.4-0.9-1.1c0-0.1,0.2-0.2,0.5-0.2h0.2c0.7,0,1.2,0.2,1.6,0.6
			l0.2-0.2l0.5,0.2c0.1-0.1,0.3-0.5,0.6-1.4v-0.2l-0.1,0.1c-0.3-0.1-0.5-0.2-0.5-0.3c0-0.2,0.1-0.2,0.2-0.2h0.3
			c0.1,0,0.2,0.1,0.2,0.2h0.2c0-0.3,0.5-0.9,1.6-1.9v-0.1l0.2,0.1l0.3-0.2c1.1-0.2,1.7-0.3,1.8-0.5c0.1,0.1,0.5,0.2,1.3,0.2
			c0.9,0,2.1,0.4,3.4,1.3l-0.2,0.2v0.2l0.8-0.1l0.1,0.2c0,0.3-0.1,0.5-0.4,0.6c1,2.2,1.5,5.4,1.5,9.7v0.1h-0.2l-0.3-0.1
			c-0.6,0-1.1,0.2-1.7,0.7v0.2c0,0.1,0.3,0.2,0.9,0.3l0.4-0.1c0.4,0.8,0.7,1.4,0.9,1.9c-0.1,1.3-0.2,2.9-0.4,4.6l0.7,0.6
			c-0.1,0.3-0.3,0.4-0.4,0.4c-0.3,0-0.4-0.1-0.4-0.2H187c-0.3,1.1-0.5,1.8-0.8,2.3c-0.7,1.9-2.1,2.9-4.1,2.9h-1
			c-0.7,0-1.3-0.1-1.8-0.3L179,67v0.2l0.1,0.1c-0.2,0-0.3,0.2-0.6,0.6l-0.4-0.1c-0.1,0.1-0.3,0.3-0.6,0.8c0,0.3,1.1,0.5,3.4,0.7
			l0.9-0.2l0.2,0.2h0.6c0.4-0.4,0.6-0.6,0.7-0.6l0.4,0.1l1.4-0.5l0.2,0.2l0.6-0.2c0.1-0.5,0.3-0.7,0.4-0.7c0.2,0,0.2,0.1,0.2,0.3
			c0.4-0.1,0.6-0.2,0.6-0.3l-0.5-0.6c0-0.3,0.1-0.5,0.3-0.6h0.2l0.7,0.4l-0.1,0.2v0.1c2.5-1.6,4.5-4.4,5.9-8.4
			c0.3-2,0.7-3.3,1.3-3.9c0.3-0.1,0.5-0.2,0.7-0.3c0.8,0.3,1.3,0.7,1.3,1.1l1.2,4.5c0.3,0.1,0.5,0.1,0.5,0.2l-0.2,0.2v0.1l0.6,1.5
			c0.5,0.3,0.7,0.7,0.7,1l0.4-0.1h0.1l-0.2,0.4l0.5,0.1V64l-0.3,0.1l0.2,0.2c0.1,0,0.2-0.1,0.2-0.2h0.2c0.2,0,0.4,0.5,0.6,1.4
			l0.4-0.1h0.2c0,0.6,0.3,1,0.8,1.3h0.2c0-0.2,0.1-0.3,0.3-0.3c0.2,0,0.3,0.1,0.3,0.2v0.2l-0.2,0.2v0.2l0.9,0.4l0.2-0.5
			c0.2,0.1,0.3,0.3,0.3,0.6v0.1l-0.2-0.1H205V68l0.2,0.1c0.1,0,0.3-0.3,0.6-0.7l-0.1-0.3l0.2-0.4l0.3,0.2h0.5l0.1,0.2h0.1l0.1-0.1
			l-0.1-0.4l0.2-0.2l0.8,0.3h0.1v-0.2c-0.1,0-0.4-0.2-0.7-0.5H207l-0.1,0.1l-0.2-0.5c-0.5-0.9-0.9-1.7-1.1-2.4
			c-0.1-1-0.4-1.4-0.8-1.4c0-0.1,0.1-0.2,0.4-0.2c-0.1-0.9-0.2-1.4-0.4-1.4h-0.2c-0.2,0.1-0.3,0.3-0.3,0.6h-0.1l-0.2-1.3v-0.1h0.8
			l0.1,0.1l0.1-0.1l-0.2-2.8l0.2-0.8l-0.1-0.3c0.2,0,0.5-0.2,0.9-0.6c0.7-0.3,1.1-0.5,1.1-0.6c-0.4-0.5-0.9-0.7-1.4-0.7h-0.8l0.1-1
			v-0.4c0-2.2,0.2-4.3,0.7-6.3l-0.1-0.1l-1.8,0.3h-0.2c-0.5,0-0.8-0.4-0.9-1.1c0-0.1,0.2-0.2,0.5-0.2h0.2c0.7,0,1.2,0.2,1.6,0.6
			l0.2-0.2l0.5,0.2c0.1-0.1,0.3-0.5,0.6-1.4v-0.2L206,44c-0.3-0.1-0.5-0.2-0.5-0.3c0-0.2,0.1-0.2,0.2-0.2h0.3c0.1,0,0.2,0.1,0.2,0.2
			h0.2c0-0.3,0.5-0.9,1.6-1.9v-0.1l0.2,0.1l0.3-0.2c1.1-0.2,1.7-0.3,1.8-0.5c0.1,0.1,0.5,0.2,1.3,0.2c0.9,0,2.1,0.4,3.4,1.3
			l-0.2,0.2v0.2l0.8-0.1l0.1,0.2c0,0.3-0.1,0.5-0.4,0.6c1,2.2,1.5,5.4,1.5,9.7v0.1h-0.2l-0.3-0.1c-0.6,0-1.1,0.2-1.7,0.7v0.2
			c0,0.1,0.3,0.2,0.9,0.3l0.4-0.1c0.4,0.8,0.7,1.4,0.9,1.9c-0.1,1.3-0.2,2.9-0.4,4.6l0.7,0.6c-0.1,0.3-0.3,0.4-0.4,0.4
			c-0.3,0-0.4-0.1-0.4-0.2h-0.1c-0.3,1.1-0.5,1.8-0.8,2.3c-0.7,1.9-2.1,2.9-4.1,2.9h-1c-0.7,0-1.3-0.1-1.8-0.3l-0.2,0.2v0.2l0.1,0.1
			c-0.2,0-0.3,0.2-0.6,0.6l-0.4-0.1c-0.1,0.1-0.3,0.3-0.6,0.8c0,0.3,1.1,0.5,3.4,0.7l0.9-0.2l0.2,0.2h0.6c0.4-0.4,0.6-0.6,0.7-0.6
			l0.4,0.1l1.4-0.5l0.2,0.2l0.6-0.2c0.1-0.5,0.3-0.7,0.4-0.7c0.2,0,0.2,0.1,0.2,0.3c0.4-0.1,0.6-0.2,0.6-0.3l-0.5-0.6
			c0-0.3,0.1-0.5,0.3-0.6h0.2l0.7,0.4l-0.1,0.2v0.1c2.5-1.6,4.5-4.4,5.9-8.4c0.3-2,0.7-3.3,1.3-3.9c0.9-0.3,1.3-0.6,1.3-0.6v-0.1
			C225.6,53.8,225.2,53.5,224.7,53.5z M170.1,53.9h0.2c0.2,0.1,0.3,0.3,0.4,0.5l-0.1,0.2c-0.4,0-0.6-0.2-0.6-0.5L170.1,53.9z
			 M169.3,57.7c-0.3-0.2-0.5-0.4-0.5-0.7c0-0.2,0.1-0.3,0.4-0.3c0.2,0.2,0.3,0.4,0.3,0.6C169.6,57.5,169.5,57.7,169.3,57.7z
			 M169.3,52.2L169.3,52.2l0.1-0.2c0.3,0,0.5,0.2,0.6,0.5v0.1l-0.1,0.1C169.5,52.7,169.3,52.5,169.3,52.2z M170.1,59.8h-0.2v-0.6
			h0.1l0.4,0.1v0.2L170.1,59.8z M170.9,61.2l-0.2,0.2c-0.2,0-0.4-0.1-0.5-0.3v-0.5l0.2-0.2h0.2c0.2,0,0.2,0.2,0.2,0.5V61.2z
			 M171.1,52.1h0.2c0.1,0,0.2,0.2,0.2,0.5l-0.2,0.2h-0.2l-0.1-0.4V52.1z M171.1,57.6v-0.2l0.1-0.1l0.2,0.1c0.1,0,0.2-0.1,0.2-0.4
			c0.3,0,0.5,0.1,0.6,0.3v0.3l-0.2,0.2c-0.4,0-0.6,0.1-0.6,0.2C171.2,58,171.1,57.8,171.1,57.6z M171.5,58.2v0.2l-0.2,0.2v-0.2
			L171.5,58.2z M171.7,61.5c-0.1,0-0.2-0.2-0.3-0.5h0.1l0.2-0.2l0.2,0.1C171.9,61.2,171.8,61.4,171.7,61.5z M171.7,63.2L171.7,63.2
			l0.1-0.2l0.2,0.2H171.7z M172.5,60.2l-0.2,0.2c-0.1,0-0.2-0.2-0.3-0.5l0.2-0.2c0.3,0,0.4,0.1,0.4,0.2V60.2z M176.4,65l0.1,0.5
			l-0.4,0.2v0.1l0.1,0.1c0.3,0,0.4,0.1,0.4,0.2v0.6h-0.1l-0.1-0.1h-0.2v0.2c0,0.3-0.2,0.4-0.6,0.4c-0.4-0.3-0.6-0.5-0.6-0.8
			C175,65.6,175.5,65.2,176.4,65z M175.8,64l0.2-0.2h0.1c0.2,0,0.2,0.2,0.2,0.5l-0.2,0.2h-0.1l-0.2-0.2V64z M175.3,64.2L175.3,64.2
			c0.1,0.2,0.2,0.3,0.4,0.6h-0.2c-0.5,0-0.7,0.1-0.7,0.4c-0.4,0.1-0.8,0.2-1.2,0.4c-0.3-0.2-0.4-0.4-0.4-0.6v-0.3l0.2-0.2h0.2
			l0.5,0.1L175.3,64.2z M174,63.2l0.2-0.2h0.2l0.1,0.4l-0.1,0.4C174.1,63.7,174,63.5,174,63.2z M174.8,63.2v-0.2h0.2v0.2H174.8z
			 M175,51.8c0.2,0.1,0.3,0.2,0.3,0.2v0.2l-0.4,0.2c-0.2,0-0.3-0.1-0.4-0.3C174.5,51.9,174.6,51.8,175,51.8z M173.6,57.1
			c0.4,0,0.6,0.3,0.8,1v0.1H174c-0.1,0-0.2,0.1-0.2,0.4h-0.1l-0.3-1L173.6,57.1z M174,62.2l0.5-0.2c0.3,0,0.5,0.1,0.6,0.4
			c-0.2,0.3-0.4,0.4-0.6,0.5l-0.4-0.4c-0.3,0.5-0.5,0.7-0.6,0.7c-0.3,0-0.5-0.2-0.7-0.6c0-0.3,0.1-0.5,0.3-0.6l-0.1-0.8v-0.1h0.2
			C173.1,61.5,173.4,61.8,174,62.2z M173.7,43.3l-0.2,0.2h-0.2l0.2-0.5h0.2V43.3z M174.6,44.4L174.6,44.4l-0.2,0.1l-0.1-0.4h0.1
			C174.5,44.1,174.6,44.2,174.6,44.4L174.6,44.4z M178.2,40.9l-0.2,0.2h-0.1l-0.1-0.1c0.1-0.3,0.2-0.5,0.3-0.5V40.9z M179.6,40.5
			l-0.3,0.2l-0.5-0.2v-0.1c0.4-0.1,0.6-0.2,0.6-0.3l0.2,0.2V40.5z M179.8,39.7L179.8,39.7l-0.1-0.3h0.1V39.7z M180.7,39.8l-0.2,0.2
			v-0.2L180.7,39.8L180.7,39.8L180.7,39.8z M180.9,39.5L180.9,39.5l-0.1-0.2h0.1V39.5z M181.2,40.6H181v-0.4l0.2,0.2V40.6z
			 M181.3,39.8h-0.2l0.2-0.2V39.8z M185.1,40.8L185.1,40.8l-0.1-0.2h0.1V40.8z M178.4,68.5h-0.2l-0.1-0.2v-0.1h0.2L178.4,68.5
			L178.4,68.5z M181.4,67.9c-0.3-0.1-0.5-0.2-0.5-0.3c0-0.2,0.1-0.3,0.3-0.3l0.3,0.2L181.4,67.9z M182.6,68.1
			c-0.2,0-0.4-0.2-0.4-0.7h0.1l0.1-0.1h0.2l0.4,0.3h0.1C183,67.9,182.8,68,182.6,68.1z M184.8,67.5l-0.3-0.1l0.2-0.2h0.1V67.5z
			 M185.9,66.5c0,0.1-0.2,0.2-0.4,0.3c-0.2,0-0.3-0.1-0.3-0.2v-0.2l0.3-0.2c0.3,0.1,0.4,0.1,0.4,0.2V66.5z M187.6,66.2h-0.2v-0.3
			h0.1l0.2,0.2V66.2z M187.3,65.5c-0.3,0-0.4-0.3-0.6-0.8c0.1-0.4,0.3-0.6,0.5-0.6c0.4,0,0.6,0.3,0.6,0.8
			C187.8,65.2,187.6,65.4,187.3,65.5z M187.9,43.6h0.2v0.1L187.9,43.6L187.9,43.6z M186.5,41h-0.2l-0.2-0.2v-0.3l0.2-0.1
			c0.3,0.1,0.4,0.2,0.4,0.3L186.5,41z M187.8,45.5l-0.6-0.2v-0.2h0.6l0.2,0.2L187.8,45.5L187.8,45.5z M188.2,57.6L188.2,57.6
			c-0.2,0.1-0.3-0.1-0.3-0.4v-0.1h0.2L188.2,57.6L188.2,57.6z M189.5,64.8c0,0.4-0.1,0.7-0.4,0.8h-0.2c-0.1-0.4-0.2-0.6-0.3-0.6
			c0.1-0.2,0.3-0.3,0.7-0.5L189.5,64.8L189.5,64.8z M190.1,62L190.1,62c-0.5,0-0.7,0-0.7-0.2v-0.2h0.3l0.4,0.1V62z M190.8,62
			c-0.4,0-0.6-0.2-0.6-0.5l0.1-0.2c0.3,0,0.5,0.2,0.6,0.5L190.8,62z M191.3,59.5l-0.2,0.2h-0.1l-0.1-0.1c0.1-0.3,0.2-0.5,0.3-0.5
			V59.5z M191.8,57.4h-0.2l-0.1-0.2v-0.1h0.2l0.2,0.2V57.4z M192.6,54.1c0,0.3-0.1,0.5-0.3,0.6h-0.2l-0.3-0.3v-0.2
			c0.1-0.2,0.3-0.3,0.6-0.3h0.1l0.2,0.2V54.1z M199.5,53.9h0.2c0.2,0.1,0.3,0.3,0.4,0.5l-0.1,0.2c-0.4,0-0.6-0.2-0.6-0.5L199.5,53.9
			z M198.7,57.7c-0.3-0.2-0.5-0.4-0.5-0.7c0-0.2,0.1-0.3,0.4-0.3c0.2,0.2,0.3,0.4,0.3,0.6C198.9,57.5,198.8,57.7,198.7,57.7z
			 M198.7,52.2L198.7,52.2l0.1-0.2c0.3,0,0.5,0.2,0.6,0.5v0.1l-0.1,0.1C198.9,52.7,198.7,52.5,198.7,52.2z M199.5,59.8h-0.2v-0.6
			h0.1l0.4,0.1v0.2L199.5,59.8z M200.2,61.2l-0.2,0.2c-0.2,0-0.4-0.1-0.5-0.3v-0.5l0.2-0.2h0.2c0.2,0,0.2,0.2,0.2,0.5V61.2z
			 M200.4,52.1h0.2c0.1,0,0.2,0.2,0.2,0.5l-0.2,0.2h-0.2l-0.1-0.4V52.1z M200.4,57.6v-0.2l0.1-0.1l0.2,0.1c0.1,0,0.2-0.1,0.2-0.4
			c0.3,0,0.5,0.1,0.6,0.3v0.3l-0.2,0.2c-0.4,0-0.6,0.1-0.6,0.2C200.5,58,200.4,57.8,200.4,57.6z M200.8,58.2v0.2l-0.2,0.2v-0.2
			L200.8,58.2z M201,61.5c-0.1,0-0.2-0.2-0.3-0.5h0.1l0.2-0.2l0.2,0.1C201.2,61.2,201.2,61.4,201,61.5z M201.1,63.2L201.1,63.2
			l0.1-0.2l0.2,0.2H201.1z M201.9,60.2l-0.2,0.2c-0.1,0-0.2-0.2-0.3-0.5l0.2-0.2c0.3,0,0.4,0.1,0.4,0.2V60.2z M205.7,65l0.1,0.5
			l-0.4,0.2v0.1l0.1,0.1c0.3,0,0.4,0.1,0.4,0.2v0.6h-0.1l-0.1-0.1h-0.2v0.2c0,0.3-0.2,0.4-0.6,0.4c-0.4-0.3-0.6-0.5-0.6-0.8
			C204.4,65.6,204.8,65.2,205.7,65z M205.2,64l0.2-0.2h0.1c0.2,0,0.2,0.2,0.2,0.5l-0.2,0.2h-0.1l-0.2-0.2V64z M204.6,64.2
			L204.6,64.2c0.1,0.2,0.2,0.3,0.4,0.6h-0.2c-0.5,0-0.7,0.1-0.7,0.4c-0.4,0.1-0.8,0.2-1.2,0.4c-0.3-0.2-0.4-0.4-0.4-0.6v-0.3
			l0.2-0.2h0.2l0.5,0.1L204.6,64.2z M203.3,63.2l0.2-0.2h0.2l0.1,0.4l-0.1,0.4C203.5,63.7,203.3,63.5,203.3,63.2z M204.1,63.2v-0.2
			h0.2v0.2H204.1z M204.3,51.8c0.2,0.1,0.3,0.2,0.3,0.2v0.2l-0.4,0.2c-0.2,0-0.3-0.1-0.4-0.3C203.8,51.9,204,51.8,204.3,51.8z
			 M202.9,57.1c0.4,0,0.6,0.3,0.8,1v0.1h-0.4c-0.1,0-0.2,0.1-0.2,0.4H203l-0.3-1L202.9,57.1z M203.3,62.2l0.5-0.2
			c0.3,0,0.5,0.1,0.6,0.4c-0.2,0.3-0.4,0.4-0.6,0.5l-0.4-0.4c-0.3,0.5-0.5,0.7-0.6,0.7c-0.3,0-0.5-0.2-0.7-0.6
			c0-0.3,0.1-0.5,0.3-0.6l-0.1-0.8v-0.1h0.2C202.4,61.5,202.7,61.8,203.3,62.2z M203,43.3l-0.2,0.2h-0.2l0.2-0.5h0.2V43.3z
			 M203.9,44.4L203.9,44.4l-0.2,0.1l-0.1-0.4h0.1C203.8,44.1,203.9,44.2,203.9,44.4L203.9,44.4z M207.5,40.9l-0.2,0.2h-0.1l-0.1-0.1
			c0.1-0.3,0.2-0.5,0.3-0.5V40.9z M208.9,40.5l-0.3,0.2l-0.5-0.2v-0.1c0.4-0.1,0.6-0.2,0.6-0.3l0.2,0.2V40.5z M209.2,39.7
			L209.2,39.7l-0.1-0.3h0.1V39.7z M210.1,39.8l-0.2,0.2v-0.2L210.1,39.8L210.1,39.8L210.1,39.8z M210.2,39.5L210.2,39.5l-0.1-0.2
			h0.1V39.5z M210.5,40.6h-0.2v-0.4l0.2,0.2V40.6z M210.6,39.8h-0.2l0.2-0.2V39.8z M214.5,40.8L214.5,40.8l-0.1-0.2h0.1V40.8z
			 M207.7,68.5h-0.2l-0.1-0.2v-0.1h0.2L207.7,68.5L207.7,68.5z M210.7,67.9c-0.3-0.1-0.5-0.2-0.5-0.3c0-0.2,0.1-0.3,0.3-0.3l0.3,0.2
			L210.7,67.9z M211.9,68.1c-0.2,0-0.4-0.2-0.4-0.7h0.1l0.1-0.1h0.2l0.4,0.3h0.1C212.3,67.9,212.2,68,211.9,68.1z M214.1,67.5
			l-0.3-0.1l0.2-0.2h0.1V67.5z M215.2,66.5c0,0.1-0.2,0.2-0.4,0.3c-0.2,0-0.3-0.1-0.3-0.2v-0.2l0.3-0.2c0.3,0.1,0.4,0.1,0.4,0.2
			V66.5z M216.9,66.2h-0.2v-0.3h0.1l0.2,0.2V66.2z M216.6,65.5c-0.3,0-0.4-0.3-0.6-0.8c0.1-0.4,0.3-0.6,0.5-0.6
			c0.4,0,0.6,0.3,0.6,0.8C217.1,65.2,216.9,65.4,216.6,65.5z M217.2,43.6h0.2v0.1L217.2,43.6L217.2,43.6z M215.8,41h-0.2l-0.2-0.2
			v-0.3l0.2-0.1c0.3,0.1,0.4,0.2,0.4,0.3L215.8,41z M217.1,45.5l-0.6-0.2v-0.2h0.6l0.2,0.2L217.1,45.5L217.1,45.5z M217.5,57.6
			L217.5,57.6c-0.2,0.1-0.3-0.1-0.3-0.4v-0.1h0.2L217.5,57.6L217.5,57.6z M218.9,64.8c0,0.4-0.1,0.7-0.4,0.8h-0.2
			c-0.1-0.4-0.2-0.6-0.3-0.6c0.1-0.2,0.3-0.3,0.7-0.5L218.9,64.8L218.9,64.8z M219.4,62L219.4,62c-0.5,0-0.7,0-0.7-0.2v-0.2h0.3
			l0.4,0.1V62z M220.2,62c-0.4,0-0.6-0.2-0.6-0.5l0.1-0.2c0.3,0,0.5,0.2,0.6,0.5L220.2,62z M220.6,59.5l-0.2,0.2h-0.1l-0.1-0.1
			c0.1-0.3,0.2-0.5,0.3-0.5V59.5z M221.1,57.4h-0.2l-0.1-0.2v-0.1h0.2l0.2,0.2V57.4z M221.9,54.1c0,0.3-0.1,0.5-0.3,0.6h-0.2
			l-0.3-0.3v-0.2c0.1-0.2,0.3-0.3,0.6-0.3h0.1l0.2,0.2V54.1z M128.5,19.9L128.5,19.9l0.1-0.1c0,0.2,0.1,0.3,0.2,0.3h0.1
			c0-0.1,0.1-0.2,0.3-0.3l0.1,0.6c0.1,0,0.1-0.2,0.1-0.5h0.1v0.6L130,21v0.1l-0.3-0.3h-0.1v0.7l0.1,0.1c0.1,0,0.2,0,0.2,0.1l0.3-0.1
			v-0.1l-0.1-0.3l0.2,0.1h0.1v-0.6c0-0.2-0.2-0.5-0.6-0.9v-0.1l0.1-0.1l0.1,0.1l0.1-0.1h0.1v0.1H130c0.2,0.1,0.3,0.3,0.3,0.4h0.1
			v-0.5l-0.1-0.1h-0.1c-0.2,0-0.5,0.1-0.8,0.3v-0.1l0.3-0.1v-0.1c-0.3-0.4-0.5-0.6-0.7-0.6l0.1-0.1c-0.1-0.4-0.2-0.6-0.3-0.6h-1.3
			l-0.1,0.1C127.3,18.8,127.7,19.3,128.5,19.9z M129.1,19.3L129.1,19.3l0.1,0.1h-0.1V19.3z M128.6,19.7L128.6,19.7l-0.1-0.2h0.1
			V19.7z M128,18.8L128,18.8c0.1,0.1,0.2,0.3,0.4,0.4h0.1v-0.1h0.1c0,0.3,0.1,0.4,0.3,0.4v0.1h-0.1C128.7,19.6,128.4,19.4,128,18.8
			L128,18.8z M129.1,20.6v0.1l0.1,0.1v-0.1L129.1,20.6z M127.9,23.3v0.1l0.6,0.3l0.3-0.1v-0.1C128.5,23.4,128.3,23.3,127.9,23.3
			L127.9,23.3z M128.4,23.1l0.1,0.1v-0.1H128.4z M75.6,18.4l0.2-0.2v-0.1l-0.1-0.1l-0.3,0.2L75.6,18.4L75.6,18.4z M167.2,49.4
			c0-0.4-0.2-0.8-0.6-1.2V46h-0.5c-0.6-0.1-0.9-0.2-0.9-0.4v-0.2l0.2-0.2l0.4,0.1c0.3,0,0.4-0.2,0.4-0.6h0.1l0.2,1h0.2v-2.1
			l-0.1-0.1c-0.2,0-0.3-0.1-0.3-0.2V43l0.3-0.4v-1.4l-0.6,0.1l-0.4-0.6c0.6,0,0.9-0.1,0.9-0.2l-0.2-0.2h-0.9l-0.7,0.2
			c-0.3,0.4-0.6,0.6-0.9,0.6v0.6l-0.2,0.2h-0.1l-0.5-0.2c-0.1-0.6-0.4-0.9-0.6-0.9l-0.5,0.5h-0.2v-0.1c0-0.3-0.1-0.4-0.4-0.4
			c0-0.4-0.7-0.7-2-0.9c0,0.3-0.2,0.4-0.5,0.4h-0.3c-0.1,0-0.2-0.1-0.2-0.4c0-0.2-1.5-0.3-4.5-0.3h-0.3l-1.2,0.1
			c0.1,0.5,0.2,0.7,0.3,0.7c-0.1,0.3-0.3,0.4-0.6,0.4h-0.2l-0.1-0.3c0-0.2,0.1-0.4,0.3-0.7v-0.1l-2.2,0.3l-4.7,1.2
			c-0.2,0-0.5-0.1-0.7-0.2c-0.2-0.5-0.4-0.8-0.5-0.8h-1.5l-0.2,0.2v7.7c0,0,0,0,0,0c0,0,0,0,0,0V46h-0.5c-0.6-0.1-0.9-0.2-0.9-0.4
			v-0.2l0.2-0.2l0.4,0.1c0.3,0,0.4-0.2,0.4-0.6h0.1l0.2,1h0.2v-2.1l-0.1-0.1c-0.2,0-0.3-0.1-0.3-0.2V43l0.3-0.4v-1.4l-0.6,0.1
			l-0.4-0.6c0.6,0,0.9-0.1,0.9-0.2l-0.2-0.2h-0.9l-0.7,0.2c-0.3,0.4-0.6,0.6-0.9,0.6v0.6l-0.2,0.2h-0.1l-0.5-0.2
			c-0.1-0.6-0.4-0.9-0.6-0.9l-0.5,0.5H137v-0.1c0-0.3-0.1-0.4-0.4-0.4c0-0.4-0.7-0.7-2-0.9c0,0.3-0.2,0.4-0.5,0.4h-0.3
			c-0.1,0-0.2-0.1-0.2-0.4c0-0.2-1.5-0.3-4.5-0.3h-0.3l-1.2,0.1c0.1,0.5,0.2,0.7,0.3,0.7c-0.1,0.3-0.3,0.4-0.6,0.4H127l-0.1-0.3
			c0-0.2,0.1-0.4,0.3-0.7v-0.1l-2.2,0.3l-4.7,1.2c-0.2,0-0.5-0.1-0.7-0.2c-0.2-0.5-0.4-0.8-0.5-0.8h-1.5l-0.2,0.2v7.7
			c-0.4,0.4-0.6,0.8-0.6,1v0.2c0,0.7,0.4,1,1.1,1h0.3c0.5,0,0.9-0.3,1.1-1c0.7-1.7,1.8-3.5,3.4-5.4c1.5-1.3,2.7-2,3.6-2.1v1.4
			l0.2-0.1c0.4,0.1,0.6,0.1,0.6,0.2v0.2h-0.2l-0.6-0.1v10.3h-0.1c-0.9,0-1.6,0.3-2,0.8V55c1.4,0.5,2.1,1.2,2.1,2v1.1
			c-1.9-0.5-3.1-0.8-3.6-0.8l-0.2,0.2c-3.5-0.4-6.6-0.6-9.1-0.6l-0.1-0.4v-0.2c0-0.4,0.2-0.7,0.5-1.1l1-0.6v-0.2
			c-0.4-0.4-1-0.6-1.6-0.6l-0.8,0.1l-4-12.3l0.6-0.8c1-0.3,1.5-0.5,1.5-0.6v-0.1c-0.4-0.4-1-0.6-1.8-0.6c-0.8,0-1.4,0.2-1.9,0.6
			l-1.4-0.9h-0.1c-0.2,0-0.7,0.3-1.7,0.9c-0.6-0.4-1.3-0.6-1.9-0.6c-1,0.1-1.6,0.3-1.8,0.6v0.2c0,0.1,0.1,0.2,0.2,0.2l0.1,0.1
			c0.9,0,1.4,0.4,1.8,1.2l-3.8,11.5v0.1l0.1,0.1h0.2c0.7-0.5,1.1-0.8,1.4-0.8c0.2,0,0.4,0.1,0.6,0.4c0,0.2-0.2,0.5-0.5,1
			c-0.2,0-0.2,0.1-0.2,0.2l-0.2-0.2h-0.1l-1.7,0.3c-0.3,0-0.6,0.4-0.7,1.2l0.2,1l-0.7,2c-6.5,1.2-9.7,2-9.7,2.3l-0.1-0.1L86,60.9
			c-1.4,0.2-2.1,0.4-2.1,0.9l-0.3-0.3l-1.3,0.3V57c0-0.4,0.2-0.9,0.7-1.4c0.9-0.4,1.4-0.6,1.4-0.7v-0.1c0-0.3-0.5-0.5-1.4-0.7h-0.7
			V42l0.4,0.1h0.1V42l-0.2-0.2v-0.3c0-0.1,0.1-0.2,0.3-0.2c0.3,0.2,0.5,0.3,0.5,0.5c-0.1,0.2-0.2,0.3-0.5,0.3v0.2
			c0.4,0,1,0.3,1.9,0.9c1.5,1.3,2.6,2.7,3.4,4.1v-0.5h0.2l0.2,0.2v0.2l-0.2,0.2h-0.1l-0.1-0.1c0,0.2,0.1,0.5,0.3,0.6
			c0.7,1.8,1.3,2.6,1.9,2.6h0.3c0.7,0,1.1-0.4,1.1-1.1c0-0.4-0.2-0.8-0.6-1.2V46H91c-0.6-0.1-0.9-0.2-0.9-0.4v-0.2l0.2-0.2l0.4,0.1
			c0.3,0,0.4-0.2,0.4-0.6h0.1l0.2,1h0.2v-2.1l-0.1-0.1c-0.2,0-0.3-0.1-0.3-0.2V43l0.3-0.4v-1.4l-0.6,0.1l-0.4-0.6
			c0.6,0,0.9-0.1,0.9-0.2l-0.2-0.2h-0.9l-0.7,0.2c-0.3,0.4-0.6,0.6-0.9,0.6v0.6L88.4,42h-0.1l-0.5-0.2c-0.1-0.6-0.4-0.9-0.6-0.9
			l-0.5,0.5h-0.2v-0.1c0-0.3-0.1-0.4-0.4-0.4c0-0.4-0.7-0.7-2-0.9c0,0.3-0.2,0.4-0.5,0.4h-0.3c-0.1,0-0.2-0.1-0.2-0.4
			c0-0.2-1.5-0.3-4.5-0.3h-0.3l-1.2,0.1c0.1,0.5,0.2,0.7,0.3,0.7c-0.1,0.3-0.3,0.4-0.6,0.4h-0.2l-0.1-0.3c0-0.2,0.1-0.4,0.3-0.7
			v-0.1l-2.2,0.3l-4.7,1.2c-0.2,0-0.5-0.1-0.7-0.2c-0.2-0.5-0.4-0.8-0.5-0.8h-1.5l-0.2,0.2v7.7c-0.4,0.4-0.6,0.8-0.6,1v0.2
			c0,0.7,0.4,1,1.1,1h0.3c0.5,0,0.9-0.3,1.1-1c0.7-1.7,1.8-3.5,3.4-5.4c1.5-1.3,2.7-2,3.6-2.1v1.4l0.2-0.1c0.4,0.1,0.6,0.1,0.6,0.2
			v0.2h-0.2l-0.6-0.1v10.3h-0.1c-0.9,0-1.6,0.3-2,0.8V55c1.4,0.5,2.1,1.2,2.1,2v6.3l-0.4,0.1c-3.1,0.5-4.6,0.9-4.6,1.1V65h-0.4
			l0.2-0.5l-0.1-0.1l-1.9,0.3c-0.5,0-0.8,0.3-0.8,0.8h-0.3c-0.1,0-0.2-0.2-0.3-0.5L66.6,65h-0.3v0.2c0.4,0,0.5,0.1,0.5,0.2
			c0,0.2-0.1,0.5-0.3,0.8c-0.4-0.3-0.8-0.4-1-0.4h-0.2l-1.8,0.4l-0.5-0.5h-0.4l-0.1,0.1l0.3,1l0.5-0.1c0.2,0,0.4,0.3,0.5,0.8
			l0.8-0.1c0.5,0.1,0.8,0.3,0.8,0.4l0.5-0.1h0.1l0.1,0.1l-0.3,0.4c0,0.4,0.4,0.8,1.1,1.2l0.5-0.5l0.3,0.3c2.6-0.4,3.9-0.7,3.9-1
			l0.4,0.1c0.4-0.1,0.8-0.2,1.1-0.3c0,0,0,0,0,0v0.1c0,0.8,0.1,1.3,0.2,1.3h2.2v0h9.1v0h0.1c0.2-0.1,0.3-0.3,0.3-0.5v-0.1
			c0-1-0.3-1.4-1-1.4h-0.7l-0.1,0.1c-0.6,0-0.9-0.5-1-1.4v-0.7c1.9-0.6,2.8-1,2.8-1.1v-0.6l0.3,0.1l0.4-0.1h0.1l0.2,0.2h-0.5v0.2
			l0.1,0.1l0.4-0.1c3.2-1.1,6.3-2.1,9.4-2.8l-0.6,1.6c-0.8,2.8-1.4,4.2-1.8,4.2c-1.4,0.2-2.2,0.4-2.2,0.6v0.1c0,1,0.1,1.4,0.2,1.4
			h5.3V69h-0.2l0.2-0.2h0.1c0,0.3,0.1,0.4,0.2,0.4h2c0.5,0,0.7-0.2,0.7-0.6v-0.3c0-0.6-0.1-0.9-0.4-1c-1.3,0-2-0.3-2-1l1.9-6
			c2.9-0.6,5.7-1,8.5-1.2c0.1,0.3,0.2,0.4,0.3,0.4l-0.1,0.1c0,0.6,0.7,2.3,2,5c0.9,2.4,1.5,3.5,1.8,3.5c0.3,0,0.5-0.1,0.8-0.2
			c0,0.1,0.1,0.2,0.3,0.2c0,0.2-0.3,0.6-0.8,1v0.1h1.8l0.1,0.1c0,0.3-0.1,0.5-0.4,0.5c0-0.1-0.1-0.2-0.4-0.2l-0.2,0.1
			c0.4,1.1,0.7,1.7,0.8,1.7h0.1l-0.1,0.2v0.2l0.6,1.4c0.3,1,0.6,1.5,1,1.5v0.3l-0.2,0.2l0.4,0.3h0.9c0.2-0.3,0.3-0.5,0.4-0.5
			l0.2,0.4c0.7,0.3,1,0.7,1,1l0.5-0.2l0.6,0.5l0.8-0.2c0-0.4-0.3-0.6-0.9-0.6c-0.4-1.3-0.8-2-1.4-2h-0.1c0.1-0.5,0.3-0.7,0.4-0.7
			h0.1l0.6,0.7l-0.5-1.1l-0.4,0.1h-0.2l-0.1-0.2c0-0.1,0.1-0.2,0.3-0.2v-0.2l-0.9-2.1h-0.1l-0.3,0.4l-0.2-0.2v-0.2
			c0-0.1,0.2-0.2,0.4-0.3l-0.4-1l0.8-0.6c0-1-0.2-1.7-0.6-1.9h-0.3l-0.8,0.7l-0.5-1.2c0.4,0,0.8-0.2,1.4-0.5l-2.2-6.8h1.2
			c3.7,0,7.4,0.4,11.1,1.2v5.6l-0.2,0.1c-0.1,1.1-0.3,1.6-0.5,1.6h-0.5c-1.1,0-1.6,0.2-1.6,0.7v0.1c0,0.8,0.1,1.3,0.2,1.3h2v0h9.4
			c0.2-0.1,0.3-0.3,0.3-0.5v-0.1c0-1-0.3-1.4-1-1.4h-0.7l-0.1,0.1c-0.6,0-0.9-0.5-1-1.4v-4.1c1,0.3,2,0.7,3,1.1
			c6.8,3.3,10.5,7.1,11.2,11.5c-0.6-0.2-1.2-0.3-1.7-0.3h-0.4c-0.3,0-0.4,0.1-0.5,0.2v0.2l0.1,0.1c0.8,0.1,1.7,0.5,2.6,0.9
			c0,0.2,0,0.3,0,0.5v1.4l-0.4,2.5l0.2,0.2h0.3c0.7-0.7,1.1-1.9,1.2-3.7c0.6,0.4,1.2,0.8,1.8,1.4c1.3,1.3,2.4,2.7,3.3,4c0,0,0,0,0,0
			c0.1,0.1,0.2,0.4,0.4,0.6l0,0c0,0,0,0,0,0c0.3,0.6,0.7,1.3,0.9,2.1c0,0,0,0,0,0c0.5,1.5,0.8,3,0.8,4.5c0,2.9-1,5.3-2.9,7.1
			c-2.5,1.9-5,2.9-7.5,2.9h-1l-1.5-0.2v0.1l-0.1,0.1l-0.2-0.2c-1.4-0.3-2.6-0.7-3.7-1.1h-0.2l-0.2,0.2V98c0,0.1,0.1,0.2,0.2,0.2
			c0,0.3-0.1,0.5-0.2,0.7h-0.1l-0.1-0.1l0.1-0.6c0-0.2-0.2-0.3-0.5-0.4v-0.5c-1.9-1.1-3.5-2.2-4.8-3.2h-0.1l-0.4,0.4h-0.1l-0.2-0.2
			c0-0.2,0.1-0.4,0.2-0.6v-0.1l-0.3-0.3H132l-0.1,0.1v-0.1h-0.2c0-0.3-0.6-1-1.8-2c-1.2-1.5-1.9-2.2-2.2-2.2l-0.6-0.7l-0.5,0.6
			l-0.3-0.2l0.2-0.2l-0.1-0.4c-0.4-0.4-0.6-0.7-0.6-0.8l0.2-0.2h0.2l-0.2-0.5c-0.2,0-0.3-0.2-0.4-0.5c-0.5,0.4-0.9,0.6-1.1,0.6h-0.2
			v-0.1c0-0.4,0.2-0.7,0.5-1l-0.8-1.1c0-0.2,0.1-0.3,0.2-0.3l-0.6-0.8h-0.1l-0.1,0.1c0-0.4-0.3-0.9-0.9-1.7
			c-0.8-1.6-1.4-2.4-1.7-2.4l-0.4,0.3c0.7,0.4,1,0.6,1,0.7v0.2c0,0.1-0.3,0.2-1,0.2l-0.8-0.2c0.2-0.2,0.3-0.4,0.3-0.6V80l-0.6-0.5
			c0-1.1-0.4-1.9-1.1-2.4c-0.3,0.2-0.5,0.3-0.5,0.5l-0.2-0.2v-0.1l-0.2,0.1h-0.2l-0.4-0.2c-0.2,0-0.4,0.1-0.7,0.3
			c0.3,1,0.6,1.4,0.8,1.4c0,0.3,0.1,0.5,0.3,0.5c0.7,0.9,1.1,1.3,1.3,1.3l0.6-0.2l0.1,0.1c0.3,0.9,0.5,1.4,0.7,1.6v0.1H120l-0.1-0.1
			l-0.2,0.2v0.4c0,0.2,0.3,0.4,1,0.6h0.1v-0.2c0-0.3,0.1-0.4,0.2-0.5l0.2,0.2v0.2l-0.2,0.3c0.5,0.9,0.9,1.4,1.2,1.4h0.1l0.5-0.6h0.1
			c0.1,0,0.2,0.1,0.2,0.4c0.5,0,0.7,0.3,0.7,0.9v0.2l-0.2,0.2h-0.4v0.3l0.2,0.2c0.1,0,0.2-0.1,0.2-0.2h0.2v0.6
			c0.6,0,1.1,0.2,1.5,0.5h0.1l-0.2-0.2v-0.2l0.1-0.1c0.1,0,0.2,0.1,0.2,0.3l-0.2,0.2l0.5,0.6V88l-0.2,0.1l0.2,0.5v0.1l0.2-0.1h0.1
			c-0.2,0.2-0.2,0.3-0.2,0.5h-0.1l-0.2-0.2v-0.1l0.1-0.1h-0.2l-0.6,0.6h-0.2c-0.3,0-0.5-0.1-0.6-0.3l-0.2,0.2
			c0.5,0.6,1.2,1.1,2.2,1.4c0.1,0.5,0.2,0.8,0.3,1c-0.2,0.2-0.4,0.2-0.6,0.2V92c0.4,0.6,0.8,0.9,1.2,0.9c0,0.3,0.3,0.7,0.7,1.1
			l0.4-0.1h0.1c0.2,0.8,0.6,1.2,1,1.2l0.9,1c3.8,2.8,6.7,4.4,9,4.8c1.2,0.5,2.6,0.7,4.2,0.7h0.6c1.1,0,2.2-0.1,3.3-0.4
			c6.4-1.9,9.6-5.5,9.6-11v-0.6c0-1.5-0.3-2.9-0.8-4.5c0-0.1-0.1-0.2-0.1-0.4c-1.5-4.1-3.8-6.4-3.8-6.4l0,0c-1.4-1.5-2.8-2.5-4-3.2
			c-0.2-4.3-2.8-8.1-7.7-11.4l-4.6-2.5c-1.2-0.4-2.3-0.8-3.3-1.1V57c0-0.4,0.2-0.9,0.7-1.4c0.9-0.4,1.4-0.6,1.4-0.7v-0.1
			c0-0.3-0.5-0.5-1.4-0.7h-0.7V42l0.4,0.1h0.1V42l-0.2-0.2v-0.3c0-0.1,0.1-0.2,0.3-0.2c0.3,0.2,0.5,0.3,0.5,0.5
			c-0.1,0.2-0.2,0.3-0.5,0.3v0.2c0.4,0,1,0.3,1.9,0.9c1.5,1.3,2.6,2.7,3.4,4.1v-0.5h0.2l0.2,0.2v0.2l-0.2,0.2h-0.1l-0.1-0.1
			c0,0.2,0.1,0.5,0.3,0.6c0.7,1.8,1.3,2.6,1.9,2.6h0.3c0.2,0,0.4,0,0.6-0.1c0.2,0.1,0.4,0.1,0.6,0.1h0.3c0.5,0,0.9-0.3,1.1-1
			c0.7-1.7,1.8-3.5,3.4-5.4c1.5-1.3,2.7-2,3.6-2.1v1.4l0.2-0.1c0.4,0.1,0.6,0.1,0.6,0.2v0.2h-0.2l-0.6-0.1v10.3h-0.1
			c-0.9,0-1.6,0.3-2,0.8V55c1.4,0.5,2.1,1.2,2.1,2v8.6l-0.2,0.1c-0.1,1.1-0.3,1.6-0.5,1.6h-0.5c-1.1,0-1.6,0.2-1.6,0.7v0.1
			c0,0.8,0.1,1.3,0.2,1.3h2.1v0h9.4c0.2-0.1,0.3-0.3,0.3-0.5v-0.1c0-1-0.3-1.4-1-1.4h-0.7l-0.1,0.1c-0.6,0-0.9-0.5-1-1.4V57
			c0-0.4,0.2-0.9,0.7-1.4c0.9-0.4,1.4-0.6,1.4-0.7v-0.1c0-0.3-0.5-0.5-1.4-0.7h-0.7V42l0.4,0.1h0.1V42l-0.2-0.2v-0.3
			c0-0.1,0.1-0.2,0.3-0.2c0.3,0.2,0.5,0.3,0.5,0.5c-0.1,0.2-0.2,0.3-0.5,0.3v0.2c0.4,0,1,0.3,1.9,0.9c1.5,1.3,2.6,2.7,3.4,4.1v-0.5
			h0.2l0.2,0.2v0.2l-0.2,0.2h-0.1l-0.1-0.1c0,0.2,0.1,0.5,0.3,0.6c0.7,1.8,1.3,2.6,1.9,2.6h0.3C166.8,50.5,167.2,50.2,167.2,49.4z
			 M166.3,42.2h0.2l-0.2,0.2V42.2z M141.6,42.2h0.2l-0.2,0.2V42.2z M118.1,43.4c0,0.1-0.1,0.2-0.4,0.2l-0.2-0.2v-0.2L118.1,43.4
			L118.1,43.4z M118.9,46l-0.5-0.2c0-0.1,0.2-0.2,0.4-0.3c0.3,0,0.4,0.1,0.4,0.2C119.3,45.8,119.2,45.9,118.9,46z M120.3,44.2
			l-0.2,0.1c-0.4-0.1-0.6-0.2-0.6-0.3v-0.2l0.2-0.2c0.4,0,0.7,0.1,0.7,0.3V44.2z M120.6,46.8L120.6,46.8l-0.2-0.1v-0.2h0.1
			L120.6,46.8L120.6,46.8z M121.3,43.8L121.3,43.8l-0.3-0.3c0-0.4,0.2-0.6,0.6-0.6l0.3,0.3C121.8,43.6,121.6,43.8,121.3,43.8z
			 M124.1,42.4l-0.7-0.3c0-0.5,0.2-0.8,0.6-0.8h0.2l0.3,0.2h0.1C124.6,41.7,124.5,42,124.1,42.4z M91.1,42.2h0.2l-0.2,0.2V42.2z
			 M90.4,49.9L90.2,50l-0.5-0.2c0.1-0.3,0.3-0.4,0.4-0.4l0.3,0.3V49.9z M90.2,46.4L90.2,46.4L90,46.5v-0.1H90.2z M90.6,43.7
			L90.6,43.7l-0.4,0.2H90v-0.2h0.2L90.6,43.7z M89.8,40.9h0.2l0.1,0.4v0.2h-0.2c-0.1,0-0.2-0.2-0.2-0.5L89.8,40.9z M89.4,44.7h0.2
			l0.2,0.2v0.1c0,0.1-0.1,0.2-0.3,0.2c-0.2-0.1-0.3-0.2-0.3-0.2L89.4,44.7z M88.7,42.4c0.4,0,0.6,0.2,0.6,0.5L89,43.2
			c-0.2-0.1-0.3-0.3-0.4-0.5L88.7,42.4z M88.4,43.9h0.3l0.1,0.5c-0.4-0.1-0.6-0.2-0.6-0.3L88.4,43.9z M87.9,43.7L87.9,43.7l0.1,0.3
			h-0.1V43.7z M86.9,44.1H87v0.2h-0.2V44.1z M84.2,40.9L84.2,40.9c0.2-0.1,0.2,0,0.3,0.2v0.1h-0.2l-0.2-0.2V40.9z M67.7,43.4
			c0,0.1-0.1,0.2-0.4,0.2l-0.2-0.2v-0.2L67.7,43.4L67.7,43.4z M68.5,46L68,45.8c0-0.1,0.2-0.2,0.4-0.3c0.3,0,0.4,0.1,0.4,0.2
			C68.8,45.8,68.7,45.9,68.5,46z M69.8,44.2l-0.2,0.1c-0.4-0.1-0.6-0.2-0.6-0.3v-0.2l0.2-0.2c0.4,0,0.7,0.1,0.7,0.3V44.2z
			 M70.1,46.8L70.1,46.8L70,46.7v-0.2h0.1L70.1,46.8L70.1,46.8z M70.8,43.8L70.8,43.8l-0.3-0.3c0-0.4,0.2-0.6,0.6-0.6l0.3,0.3
			C71.3,43.6,71.1,43.8,70.8,43.8z M73.7,42.4l-0.7-0.3c0-0.5,0.2-0.8,0.6-0.8h0.2l0.3,0.2h0.1C74.1,41.7,74,42,73.7,42.4z
			 M64.1,67.1h-0.2v-0.3l0.1-0.1h0.1l0.1,0.1L64.1,67.1z M65.6,66.6v-0.2h0.1l0.2,0.2H65.6z M68,65.9c0.1-0.4,0.2-0.5,0.3-0.5h0.1
			V66h-0.3L68,65.9z M69,68.3l-0.1,0.1c-0.4,0-0.6-0.1-0.6-0.4c0-0.3,0.1-0.4,0.3-0.4L69,68V68.3z M71,67.6
			c-0.1,0.2-0.3,0.3-0.6,0.3l-0.5-0.1v-0.3l0.3-0.3h0.3l0.5,0.1V67.6z M71.4,67.6h-0.1l-0.1-0.1c0-0.4,0.2-0.6,0.8-0.6l-0.1-0.4
			l0.2-0.3c0.2,0,0.3,0.3,0.5,0.9C72.6,67.2,72.2,67.4,71.4,67.6z M74,65.7h0.2v0.1H74V65.7z M75.1,67.3h-0.5c-0.3,0-0.6,0-0.8,0.1
			c-0.1-0.1-0.3-0.1-0.4-0.2c0-0.6,0.4-1,1.3-1h0.2c0.2,0.2,0.4,0.3,0.6,0.4C75.4,67.1,75.3,67.3,75.1,67.3z M78.9,40
			c0.1,0,0.2,0.2,0.4,0.7c-0.1,0.5-0.3,0.7-0.5,0.7c-0.4,0-0.6-0.3-0.6-0.9C78.2,40.2,78.4,40,78.9,40z M77.9,48.4L77.8,48l0.2-0.2
			h0.1l0.1,0.6H77.9z M79.1,43.6c-0.1,0.4-0.2,0.6-0.3,0.6l-0.6-0.6v-0.2l0.3-0.2L79.1,43.6L79.1,43.6z M79.8,50.5
			c0,0.1-0.2,0.2-0.4,0.3l-0.2-0.2l0.3-0.3h0.3V50.5z M80.6,43.2l-0.3,0.3H80c-0.1,0-0.3-0.3-0.4-1l0.2-0.2H80
			C80.4,42.3,80.6,42.6,80.6,43.2L80.6,43.2z M80.7,40.8L80.5,41l-0.2-0.2v-0.2l0.2-0.2h0.1l0.2,0.2V40.8z M81.2,47.9L81.2,47.9
			l-0.1-0.3h0.1V47.9z M85,63.3l-0.6-0.1v-0.1l0.3-0.1l0.3,0.1V63.3z M85.4,62l-0.1,0.1l-0.6-0.2l0.3-0.3h0.2l0.2,0.2V62z
			 M85.7,62.8h-0.1v-0.2h0.1V62.8z M86.4,62.2h-0.1V62h0.1V62.2z M86.8,62.8h-0.1v-0.2h0.1V62.8z M87,61.6l-0.2,0.2h-0.1v-0.1
			l0.2-0.2H87V61.6z M90.8,60.9h-0.1v-0.2h0.1V60.9z M92.3,60.7l-0.2,0.2h-0.3l-0.1-0.1c0.1-0.2,0.2-0.4,0.4-0.4l0.2,0.2V60.7z
			 M92,68.5c-0.1,0-0.2-0.2-0.3-0.6c0.1-0.3,0.3-0.4,0.4-0.4c0.2,0.3,0.3,0.5,0.3,0.6L92,68.5z M94.7,68c-0.2,0-0.3-0.2-0.4-0.6
			c0-0.4,0.3-0.7,1-0.9l0.4,0.2C95.3,67.5,94.9,68,94.7,68z M95.8,66h-0.2v-0.4l0.2-0.3h0.2l0.2,0.2C96.1,65.7,96,65.9,95.8,66z
			 M99.4,59.3L99.4,59.3l0-0.2l0,0V59.3z M101.2,49.8L101.2,49.8l-0.1,0.2l-0.2-0.2H101.2z M99.7,58.9h-0.1v-0.2h0.1V58.9z
			 M99.8,58.1l1.1-3.1l0.8-2.5v-0.1l-0.1-0.1h0.1c1.1-3.4,1.8-5.2,2-5.5l2.2,7l1.1,3.5C103.5,57.6,101.1,57.8,99.8,58.1z
			 M108.1,59.3L108.1,59.3L108,59c0.1,0,0.2,0,0.3,0L108.1,59.3z M110.1,51H110v-0.2h0.2V51z M111.3,64.2h-0.2v-0.2l0.1-0.1h0.1
			l0.1,0.1L111.3,64.2z M112.6,60.7l-0.1-0.2l0.2-0.4h0.2l0.1,0.1C112.8,60.6,112.7,60.7,112.6,60.7z M113.4,62.7l-0.2-0.5v-0.1
			c0.2,0.1,0.3,0.3,0.3,0.6H113.4z M118.1,76L118.1,76l0.2,0.1l-0.2,0.2h-0.1V76z M117.4,74.7L117.4,74.7l0.2,0.2v0.1h-0.2V74.7z
			 M116.9,72.4h0.2l0.1,0.1c-0.1,0.2-0.2,0.4-0.3,0.4h-0.1l-0.2-0.2L116.9,72.4z M115.4,73.4v0.2c0,0.1-0.1,0.2-0.3,0.2
			c-0.2,0-0.4-0.1-0.5-0.4l0.2-0.2h0.4L115.4,73.4z M114.9,72.2v0.2l-0.2,0.2c-0.4-0.2-0.6-0.5-0.6-0.8l0.2-0.2
			C114.7,71.5,114.9,71.8,114.9,72.2z M114.4,70.1h0.3v0.5h-0.1l-0.1-0.1h-0.2l-0.1,0.1l0.2,0.5c0,0.2-0.1,0.3-0.3,0.4h-0.1l-0.3-1
			C113.8,70.2,114.1,70.1,114.4,70.1z M129.4,40c0.1,0,0.2,0.2,0.4,0.7c-0.1,0.5-0.3,0.7-0.5,0.7c-0.4,0-0.6-0.3-0.6-0.9
			C128.7,40.2,128.9,40,129.4,40z M128.4,48.4l-0.1-0.4l0.2-0.2h0.1l0.1,0.6H128.4z M129.6,43.6c-0.1,0.4-0.2,0.6-0.3,0.6l-0.6-0.6
			v-0.2l0.3-0.2L129.6,43.6L129.6,43.6z M130.3,50.5c0,0.1-0.2,0.2-0.4,0.3l-0.2-0.2l0.3-0.3h0.3V50.5z M131.1,43.2l-0.3,0.3h-0.3
			c-0.1,0-0.3-0.3-0.4-1l0.2-0.2h0.2C130.9,42.3,131.1,42.6,131.1,43.2L131.1,43.2z M131.2,40.8L131,41l-0.2-0.2v-0.2l0.2-0.2h0.1
			l0.2,0.2V40.8z M131.7,47.9L131.7,47.9l-0.1-0.3h0.1V47.9z M117.6,78.6h-0.2l-0.2-0.2v-0.2c0-0.1,0.2-0.2,0.5-0.2h0.1l0.1,0.1
			C117.9,78.3,117.8,78.5,117.6,78.6z M118.5,78.8c-0.1,0-0.2-0.2-0.2-0.5h0.1l0.2-0.5c0.3,0,0.4,0.1,0.5,0.3
			C118.8,78.6,118.6,78.8,118.5,78.8z M121.6,83.9v-0.2l0.2-0.2h0.1l-0.1,0.3H121.6z M122.1,84.1h-0.3V84L122.1,84.1L122.1,84.1z
			 M121.9,83.4l-0.3-0.2l0.1-0.4v-0.1c0-0.2-0.3-0.2-0.9-0.2l-0.5-1l-0.2,0.1H120v-0.4l0.1-0.1l0.6,0.2v0.1h-0.2v0.2l0.6,0.2
			l0.4-0.3h0.2l0.2,0.2V82l-0.1,0.1c0.1,0.1,0.3,0.2,0.6,0.2l-0.1,0.3c0.2,0.2,0.2,0.4,0.2,0.6v0.2L121.9,83.4z M122.5,84.3
			l-0.2-0.3c0.1-0.5,0.3-0.7,0.5-0.7v0.1h0.2C122.9,84,122.7,84.3,122.5,84.3z M123.5,84l-0.2,0.2h-0.2l0.1-0.2L123.5,84L123.5,84z
			 M127.4,92c-0.1,0.2-0.3,0.3-0.5,0.4c-0.2,0-0.2-0.1-0.2-0.2v-0.2L127.4,92L127.4,92z M128.8,93.5l-0.2,0.2h-0.1l-0.1-0.1l0.1-0.2
			L128.8,93.5L128.8,93.5z M129.2,93.3H129v-0.2h0.2V93.3z M129.8,93.3h-0.2l-0.2-0.2V93C129.6,93.1,129.8,93.1,129.8,93.3
			L129.8,93.3z M129.8,91.8l-0.6,0.1l0.2,0.5c0,0.2-0.1,0.3-0.2,0.3h-0.2l-0.1-0.1c0-0.3-0.2-0.6-0.6-0.9l-0.5,0.2h-0.1l-0.1-0.1
			c0-0.5,0.1-0.7,0.2-0.7V91c0-0.2-0.3-0.3-1-0.4v-0.1l0.1-0.1v-0.2l-0.6-0.3c-0.6-0.2-1-0.4-1-0.6l0.2-0.2l0.7,0.2l1-0.1
			c0.5,0,0.7,0.2,0.7,0.7c0.4,0,0.6,0.2,0.6,0.5v0.1l-0.1,0.1c-0.2,0-0.3-0.2-0.6-0.5l-0.2,0.2c0.3,0.4,0.6,0.7,0.9,0.8h0.3l0.6-0.1
			c0.2,0.2,0.2,0.4,0.2,0.6V91.8z M130.6,94.3L130.6,94.3l-0.1-0.2l0.1-0.1h0.1l0.1,0.1L130.6,94.3z M130.8,93.3l-0.2,0.2h-0.1
			l-0.1-0.1L130.8,93.3L130.8,93.3L130.8,93.3z M132.2,96.1l-0.2,0.2H132v-0.1l0.2-0.2V96.1z M132.9,96.9l-0.2,0.2V97L132.9,96.9
			L132.9,96.9L132.9,96.9z M134.1,97.7l-0.2,0.2h-0.1v-0.2L134.1,97.7L134.1,97.7z M134.1,96.6v-0.3l0.3-0.2l0.3,0.3v0.1
			c0,0.1-0.2,0.2-0.4,0.3C134.2,96.8,134.1,96.7,134.1,96.6z M136.2,99.4c-0.2,0-0.4-0.3-0.5-1c-0.7-0.7-1.1-1.1-1.1-1.2l0.2-0.2
			h0.1l1.1,1.1c0.7,0,1,0.2,1,0.5C136.9,99.2,136.6,99.4,136.2,99.4z M139,98.9h-0.2v-0.1l0.1-0.4h0.1V98.9z M139.7,99.7L139.7,99.7
			l-0.1-0.2c0-0.3,0.1-0.4,0.2-0.5h0.2l0.1,0.2C140.1,99.4,140,99.6,139.7,99.7z M143.4,101.3l-0.2-0.2h0.2V101.3z M135,41.2h-0.2
			l-0.2-0.2v-0.2l0.1-0.1C134.8,40.8,134.9,41,135,41.2L135,41.2z M137.5,44.2h-0.2v-0.2h0.2V44.2z M138.5,44.1L138.5,44.1l-0.1-0.3
			h0.1V44.1z M140.7,46.4L140.7,46.4l-0.2,0.1v-0.1H140.7z M141.1,43.7L141.1,43.7l-0.4,0.2h-0.2v-0.2h0.2L141.1,43.7z M140.3,40.9
			h0.2l0.1,0.4v0.2h-0.2c-0.1,0-0.2-0.2-0.2-0.5L140.3,40.9z M138.7,44.1l0.2-0.2h0.3l0.1,0.5C138.9,44.3,138.7,44.2,138.7,44.1z
			 M139.1,42.7l0.1-0.2c0.4,0,0.6,0.2,0.6,0.5l-0.2,0.2C139.3,43.1,139.2,42.9,139.1,42.7z M139.7,44.9l0.2-0.2h0.2l0.2,0.2v0.1
			c0,0.1-0.1,0.2-0.3,0.2C139.8,45.1,139.7,45,139.7,44.9z M140.9,49.9l-0.2,0.1l-0.5-0.2c0.1-0.3,0.3-0.4,0.4-0.4l0.3,0.3V49.9z
			 M142.8,43.4c0,0.1-0.1,0.2-0.4,0.2l-0.2-0.2v-0.2L142.8,43.4L142.8,43.4z M143.6,46l-0.5-0.2c0-0.1,0.2-0.2,0.4-0.3
			c0.3,0,0.4,0.1,0.4,0.2C143.9,45.8,143.8,45.9,143.6,46z M145,44.2l-0.2,0.1c-0.4-0.1-0.6-0.2-0.6-0.3v-0.2l0.2-0.2
			c0.4,0,0.7,0.1,0.7,0.3V44.2z M145.3,46.8L145.3,46.8l-0.2-0.1v-0.2h0.1L145.3,46.8L145.3,46.8z M145.9,43.8L145.9,43.8l-0.3-0.3
			c0-0.4,0.2-0.6,0.6-0.6l0.3,0.3C146.5,43.6,146.3,43.8,145.9,43.8z M148.8,42.4l-0.7-0.3c0-0.5,0.2-0.8,0.6-0.8h0.2l0.3,0.2h0.1
			C149.3,41.7,149.2,42,148.8,42.4z M154,40c0.1,0,0.2,0.2,0.4,0.7c-0.1,0.5-0.3,0.7-0.5,0.7c-0.4,0-0.6-0.3-0.6-0.9
			C153.4,40.2,153.6,40,154,40z M153.1,48.4L153,48l0.2-0.2h0.1l0.1,0.6H153.1z M154.3,43.6c-0.1,0.4-0.2,0.6-0.3,0.6l-0.6-0.6v-0.2
			l0.3-0.2L154.3,43.6L154.3,43.6z M155,50.5c0,0.1-0.2,0.2-0.4,0.3l-0.2-0.2l0.3-0.3h0.3V50.5z M155.8,43.2l-0.3,0.3h-0.3
			c-0.1,0-0.3-0.3-0.4-1l0.2-0.2h0.2C155.6,42.3,155.8,42.6,155.8,43.2L155.8,43.2z M155.9,40.8l-0.2,0.2l-0.2-0.2v-0.2l0.2-0.2h0.1
			l0.2,0.2V40.8z M156.4,47.9L156.4,47.9l-0.1-0.3h0.1V47.9z M159.6,41.2h-0.2l-0.2-0.2v-0.2l0.1-0.1
			C159.5,40.8,159.6,41,159.6,41.2L159.6,41.2z M162.2,44.2h-0.2v-0.2h0.2V44.2z M163.2,44.1L163.2,44.1l-0.1-0.3h0.1V44.1z
			 M165.3,46.4L165.3,46.4l-0.2,0.1v-0.1H165.3z M165.7,43.7L165.7,43.7l-0.4,0.2h-0.2v-0.2h0.2L165.7,43.7z M165,40.9h0.2l0.1,0.4
			v0.2h-0.2c-0.1,0-0.2-0.2-0.2-0.5L165,40.9z M163.4,44.1l0.2-0.2h0.3l0.1,0.5C163.6,44.3,163.4,44.2,163.4,44.1z M163.8,42.7
			l0.1-0.2c0.4,0,0.6,0.2,0.6,0.5l-0.2,0.2C164,43.1,163.9,42.9,163.8,42.7z M164.4,44.9l0.2-0.2h0.2l0.2,0.2v0.1
			c0,0.1-0.1,0.2-0.3,0.2C164.5,45.1,164.4,45,164.4,44.9z M165.6,49.9l-0.2,0.1l-0.5-0.2c0.1-0.3,0.3-0.4,0.4-0.4l0.3,0.3V49.9z
			 M50.6,69.4h-0.6c-0.1,0-0.2,0.1-0.2,0.3l-0.5-0.1c-0.3,0-0.4,0.1-0.4,0.3v0.2l0.1,0.1l0.6-0.1l0.6,0.3l0.4-0.2l0.4,0.2h0.5
			l0.1-0.1l-0.9-0.5C50.8,69.6,50.7,69.4,50.6,69.4z M134.5,20.7h0.1l0.4,0.2c0,0.4,0.1,0.6,0.2,0.6h0.1l0.1-0.1l-0.3-1.2v-0.1
			l0.1-0.1h0.3V20l-0.2,0.2c0,0.5,0.2,0.9,0.7,1.2c0.1,0.4,0.2,0.6,0.3,0.6v-0.4l0.6-0.1l-0.1-0.4c0-0.1,0.1-0.1,0.2-0.1l-0.1-0.4
			l0.1-0.3h0.1l0.3,0.1c0.2-0.2,0.5-0.4,1.1-0.5v-0.1l-0.2-0.3v-0.1c0-0.3,0.1-0.4,0.4-0.5c0.3,0.2,0.4,0.4,0.4,0.5l-0.1,0.4h0.1
			c0.7,0,1.3,0.1,1.8,0.4l0.4-0.4h0.1c0.1,0,0.2,0.1,0.3,0.3l-0.3,0.3c0,0.1,0.1,0.2,0.4,0.3l0.8,0.7c1.3,1.6,2,2.5,2.1,2.6h0.7
			c0.1,0,0.2-0.2,0.2-0.5v-4.6c0-0.3-0.1-0.5-0.2-0.5h-0.8l-1.2,1c-1.9-0.7-3.2-1-4-1l-1,0.1c-0.3,0-0.5,0.2-0.6,0.6l0.1,0.3v0.1
			c-0.3,0.4-0.5,0.6-0.5,0.7l-0.1-0.1l-0.3,0.1l-0.9-0.4l0.1-0.3c0-0.1,0-0.2-0.1-0.2h-0.1c-0.7,0.4-1.3,1.1-1.8,1.8l0.1,0.2v0.1
			h-0.1l-0.1-0.1H134l-0.1,0.3v0.1l0.3-0.1C134.4,21.4,134.5,21.2,134.5,20.7z M144.8,20.7L144.8,20.7c0.2-0.1,0.3,0.1,0.3,0.3H145
			L145,21l-0.2-0.2V20.7z M144,20.8L144,20.8c0.2,0,0.3,0.2,0.4,0.5l-0.1,0.1h-0.1c-0.1,0-0.2-0.1-0.3-0.4L144,20.8z M143.7,22.1
			c0.1-0.2,0.2-0.3,0.4-0.3c0.2,0,0.4,0.1,0.4,0.3v0.2c0,0.2-0.1,0.4-0.3,0.5h-0.1l-0.4-0.4V22.1z M143,19.2l0.3,0.2l-0.1,0.1
			l-0.2-0.2V19.2z M143.1,19.7h0.1c0.2,0.1,0.3,0.2,0.3,0.4c0,0.2-0.1,0.3-0.3,0.4v-0.1c-0.2,0-0.3-0.1-0.3-0.3
			C143,19.9,143.1,19.7,143.1,19.7z M142.3,20.4l0.1-0.1h0.1l0.1,0.2l-0.1,0.2L142.3,20.4L142.3,20.4z M72.5,25.4l0.6,0.2l-0.2,1.1
			v0.1c0.5,0.3,0.8,0.5,0.8,0.6c0,0.3-0.1,0.5-0.2,0.7c0.5,0.5,1.2,0.9,2.2,1.3c0.1,0,0.2-0.1,0.2-0.4h0.4l0.8,0.9h0.1v-0.1
			c-0.2-0.2-0.2-0.4-0.2-0.6v-0.1H77c0.2,0.4,0.3,0.6,0.5,0.6l-0.1,0.1c0,0.1,0.4,0.3,1.2,0.5c3.5,0.6,5.2,1.5,5.2,3
			c0,1.7-1.2,2.6-3.7,2.6l-0.7-0.1v0.2c0.1,0,0.2,0.1,0.3,0.3v0.2h-0.2c-0.3,0-0.5-0.2-0.6-0.5l0.2-0.2v-0.1c-0.8-0.1-1.8-0.6-3-1.4
			c-0.8-0.9-1.3-1.3-1.5-1.3c-0.3-0.9-0.9-1.8-1.8-2.8h-1.1l-0.3,0.3v0.6c0,0.2,0.1,0.2,0.3,0.2l-0.4,0.7V36h0.2l0.1-0.1l0.7,0.5
			h0.1c0,0.3-0.1,0.4-0.4,0.4c-0.2,0-0.4-0.1-0.6-0.3h-0.1v0.6c0,0.4,0.1,0.7,0.3,0.7h1c0.3,0,0.9-0.4,1.8-1.3l1.4,0.5l0.4-0.2h0.2
			l0.1,0.1v0.1L76.5,37v0.1c0.2,0.3,1.4,0.6,3.7,0.7l2.3-0.2c3.6-1.1,5.5-3.3,5.5-6.4c0-1.2-0.2-2.1-0.6-2.9c0.4-1,1.1-1.5,2-1.5
			v-0.3c-0.5-0.5-1-0.7-1.5-0.7h-0.3c-0.6,0-1.2,0.2-1.8,0.7l-0.1-0.1c-1.3-0.7-3.7-1.4-7.2-2.2h-0.1l-0.1,0.1
			c-1.2-0.5-1.9-1-2.3-1.5h-0.6l-0.3,0.4v0.1l-0.6-0.2v-0.7c0-0.1-0.2-0.2-0.4-0.3H74L73.9,22l0.4,0.7v0.2l-0.8-0.3
			c-0.1,0-0.4,0.4-0.9,1.1h-0.1l-0.3-1v-0.1l0.1-0.1l0.8,0.2h0.1v-0.1c0-0.1-0.1-0.2-0.2-0.2c0-0.3-0.2-0.6-0.7-0.7
			c-0.3,0.7-0.4,1.5-0.4,2.2v0.6c0,0.5,0.1,0.8,0.2,1L72.5,25.4z M72.7,31.1c0,0.3-0.1,0.4-0.2,0.5h-0.2l-0.2-0.2v-0.1
			c0-0.3,0.1-0.5,0.3-0.6L72.7,31.1L72.7,31.1z M73.5,33.9l-0.2,0.2c-0.3,0-0.4-0.1-0.5-0.2v-0.2c0-0.3,0.1-0.4,0.2-0.5h0.1
			c0.2,0.1,0.3,0.3,0.3,0.6V33.9z M74.5,36.2l-0.2,0.2h-0.1c-0.2-0.1-0.3-0.3-0.4-0.5l0.2-0.2h0.1C74.2,36,74.3,36.1,74.5,36.2
			L74.5,36.2z M86.5,33.5c-0.1,0-0.3-0.1-0.5-0.3l0.2-0.4C86.2,32.8,86.3,33,86.5,33.5L86.5,33.5z M85.8,29.3h0.2
			c0.3,0.3,0.5,0.5,0.5,0.8c0,0.2-0.1,0.3-0.3,0.3c-0.3,0-0.4-0.2-0.5-0.7L85.8,29.3z M81.2,30.8L81.2,30.8L81,30.7
			c-0.1-0.4-0.3-0.6-0.6-0.6v-0.3l0.8-0.1c0.1,0,0.2,0.2,0.3,0.5L81.2,30.8z M80.5,26.4l0.3,0.1h0.1l0.1-0.1l-0.2-0.5
			c0-0.1,0.2-0.2,0.6-0.5c0.2,0,0.4,0.7,0.4,2.2l-0.3,0.2l-1.3-0.5L80.5,26.4z M79.3,29.4c0-0.2,0.1-0.4,0.3-0.7
			c0.3,0,0.6,0.2,0.8,0.6l-0.6-0.1L79.3,29.4L79.3,29.4L79.3,29.4z M78.1,24.5L78.1,24.5l0.3,0.2v0.1l-0.1,0.1
			C78.2,24.9,78,24.8,78.1,24.5L78.1,24.5z M77.5,26.3l0.2-0.2h0.1l0.2,0.5v0.2h-0.2l-0.2-0.2V26.3z M74.8,24.2
			c0.2,0.1,0.3,0.3,0.4,0.5v0.1h-0.1l-0.5-0.4L74.8,24.2z M73.6,23.7L74,24v0.1l-0.1,0.1c-0.2,0-0.3-0.1-0.3-0.3V23.7z M74.1,25.1
			c0.2,0.1,0.4,0.2,0.5,0.4l0.6-0.1c0.2,0,0.4,0.1,0.6,0.2l-0.2,0.6l0.2,0.2c0,0.3-0.2,0.6-0.6,0.9h-0.3c0-0.4-0.2-0.6-0.4-0.6
			c0-0.4-0.3-0.8-0.7-1.4L74.1,25.1z M72.9,23.7L72.9,23.7l0.1,0.4h-0.1V23.7z M72,24.2l0.2-0.2h0.2l-0.2,0.3H72V24.2z M65.6,65.3
			h0.3v-0.2h-0.3V65.3z M64.7,24.9c0.2-0.1,0.4-0.3,0.6-0.4c0.1-0.1,0.3-0.2,0.4-0.2l0.9-0.8c1.2-1,2.1-2.3,2.7-3.7
			c0.4-0.9,0.9-2.5,1.4-4.8c-0.4-0.4-0.9-0.7-1.3-0.9c-0.1-0.3-0.4-0.4-0.9-0.4c-1,0-1.7,0.6-2.1,1.9c0,0.2-0.1,0.3-0.1,0.5
			c0,0.1,0,0.3,0,0.4c0,0.7,0.4,1,1.1,1c0.6,0,1-0.1,1.2-0.3c-0.8,3.2-2,5.4-3.5,6.6l-0.7,0.6c-0.1,0.3-0.2,0.5-0.1,0.5
			C64.3,25,64.4,25.1,64.7,24.9z M72.5,27.3L72.5,27.3v-0.6c-0.5-0.2-0.8-0.4-0.8-0.7h-0.2l-0.2,0.2l0.3,0.2
			C71.6,27,71.9,27.3,72.5,27.3z M118.9,82.3L118.9,82.3l-0.2,0.1l1,1.6h0.1l0.1-0.1l-0.1-0.3C119.2,82.8,118.9,82.4,118.9,82.3z
			 M120.3,78.4l0.5,0.3l-0.7-1.6h-0.2l-0.1,0.2l-0.2-0.1c-0.2,0-0.2,0.1-0.2,0.2v0.2l0.6,0.9L120.3,78.4z M59.6,66h-0.1v0.2h0.4
			l0.1-0.1c0.3,0.5,0.9,0.8,1.8,0.8l0.2-0.3c-0.1-0.2-0.2-0.4-0.2-0.8L59.6,66z M123.2,87.6L123.2,87.6l0.1-0.2v-0.2l-0.4-0.6
			l-0.6,0.1l-0.4-0.4l-0.2,0.2v0.2l0.2,0.2c0.3,0,0.5,0.2,0.5,0.6c0.3,0.2,0.6,0.5,0.9,0.9h0.1l0.2-0.2v-0.1
			C123.5,87.8,123.4,87.7,123.2,87.6z M63.1,68.4l0.1-0.1c0-0.1-0.1-0.2-0.4-0.2l0.1-0.5v-0.1l-0.3-0.3h-1.4l-1.4,0.6L59,67.6
			c-0.3,0.1-0.4,0.4-0.4,0.8h-0.1c-0.7-0.6-1.1-1.2-1.1-1.6l0.2-0.3c0.3,0,0.7,0.2,1.2,0.5c0.1,0,0.2-0.1,0.3-0.4v-0.1L59,66.3
			c-0.2,0-0.3-0.1-0.3-0.2c-1.9,0.2-3.5,0.3-4.8,0.3l-0.4,0.2h-0.1v-0.2l-1,0.1c-0.1,0.3-0.3,0.4-0.6,0.4h-0.8l-0.5-0.1l-0.1,0.1
			l0.1,0.1c0,0.4-0.2,0.7-0.5,1h-0.2l-0.2-1.3v-0.3h-0.1l-0.2,0.2l-0.3-0.2h-0.5c-0.1,0.5-0.3,0.8-0.5,0.8c0-0.1-0.2-0.2-0.5-0.2
			c-0.4,0-0.6,0.1-0.6,0.4h-0.4L46,67.3l0.2-0.6v-0.1l-0.1-0.1c-0.7,0-1.1-0.1-1.2-0.2h-0.4l-0.1,0.1v-0.1l-5.6-1l-0.5,0.1L37.9,65
			h-0.4l-0.2,0.6h-0.5l-0.1-0.3l0.2-0.4v-0.1c-2.4-0.7-4.5-1.5-6.3-2.5c-0.2,0-0.3,0.1-0.3,0.2l-0.9-0.1c-0.2,0-0.4,0.2-0.5,0.5
			l-0.2-0.2l0.4-0.6h0.1l0.1,0.1h0.1l0.2-0.2v-0.2L25.8,59c-2.9-3.3-4.3-6.7-4.3-10.1v-0.4l-0.1-0.1l0.1-0.1v-0.3
			c0-0.8,0.1-1.6,0.4-2.6l0.2,0.1l0.4-0.1v-0.1L22.3,45l0.1-0.3l-0.2-0.2c0,0,0,0,0,0c0,0,0-0.1,0-0.1c1.4-2.9,3.9-5.1,7.7-6.5
			c0.6,0.6,1,1.2,1,1.8v7.1c0,1.9,0.6,3.6,1.9,5.2c3.2,3.3,7.2,4.9,12.2,4.9h1.4c1.4,0,2.9-0.2,4.5-0.5c6.4-1.8,9.7-5.2,9.7-10.4
			v-6.7c0-0.4,0.4-1,1.3-1.7c1-0.3,1.5-0.6,1.5-0.9c-0.7-0.6-1.3-1-1.9-1h-0.9V21.9c0-1.9,0.6-3.1,1.7-3.8c1.1-0.2,1.6-0.4,1.6-0.8
			c-0.5-0.4-1.2-0.6-1.9-0.6h-0.4L60,17l-1.3-0.8c-0.4,0-0.8,0.3-1.4,0.8l-1.6-0.3h-0.5c-0.9,0-1.5,0.2-1.9,0.6v0.1
			c0,0.2,0.4,0.4,1.2,0.5c1.4,0.6,2,1.4,2,2.5v15.2h-0.5c-0.9,0-1.7,0.3-2.3,1v0.2c1.9,0.7,2.8,1.6,2.8,2.6v5.7c0,1-0.2,2.2-0.5,3.5
			c-1.4,3.5-4,5.3-7.8,5.3c-1.7,0-3.4-0.4-5.2-1.2c-2.3-1.3-3.4-4.4-3.4-9.3v-4c0-0.8,0.5-1.4,1.6-2c1.6,0,3.8,1.1,6.7,3.2l0.2-0.2
			v-0.1c0-0.4-0.3-0.9-1-1.5c-2.6-1.9-5.1-3-7.5-3.2V22.8L37.9,22l0.2-1v-0.1l0.3,0.1l0.2-0.2l-0.1-0.5c0.4-0.3,0.8-0.4,1-0.4v-0.5
			c0-0.5,0.4-0.9,1.2-1.2c1-0.2,1.5-0.4,1.5-0.6v-0.1c-0.6-0.5-1.3-0.8-2.3-0.8c-1,0-1.9,0.3-2.7,0.9l-1.4-0.9h-0.1
			c0.1,0.3,0.3,0.4,0.5,0.4l-0.4,0.9c-0.6-0.3-0.9-0.7-0.9-1l0.4-0.5v-0.1h-0.1c-0.9,0.2-1.3,0.6-1.3,1l-0.1-0.1
			c-0.2,0-0.5,0.1-0.8,0.3h-0.1l-1-0.5c-0.2,0-0.3,0.1-0.3,0.3c-0.7-0.4-1.1-0.6-1.4-0.6c-0.7,0-1.2,0.4-1.5,1.3H29l0.1,0.1h0.1
			l0.1-0.1c0,0.1,0.2,0.3,0.6,0.4h0.2L30,17.9h0.1l0.4,0.4h-0.3c0.4,0.3,0.7,0.9,1,1.6l0.5-0.1h0.1l0.6,0.2l-0.1,0.6l0.1,0.4
			c-0.3,0.6-0.6,0.9-0.9,0.9c-0.2,0-0.4-0.2-0.4-0.6l-0.2,0.2v4.4L31,26l-0.1,0.1v1.1l0.3-0.1c0.5,0.3,0.8,0.8,0.8,1.4l-0.3,0.3
			h-0.2c-0.2,0-0.3-0.2-0.3-0.5h-0.2v4.1l0.1,0.1l-0.1,0.1v3.1h-0.9c-0.8,0-1.4,0.4-2,1.1c-1.8,0.8-3.3,1.7-4.5,2.7
			c-0.3-0.9-1.1-1.6-2.3-2v-0.1c1.6-0.6,2.5-1.7,2.5-3.3c-0.4-2.3-1.8-3.4-4.2-3.4H19c-1,0-1.5,0.1-1.5,0.4v0.3l0.1,0.1l-0.1,0.1
			v0.1h0.3v-0.2l0.3,0.1v0.3c0,0.7,0.1,1.3,0.4,1.8h-0.1l0.1,1l-0.1,0.5v0.1l0.1,0.1c-0.4,0.3-0.8,0.4-1.2,0.4l0,0
			c0,0-0.7,0.2-1.1,0.1h-1.1v0h-3v-5.4h0v-3.4l0.2-0.2l-0.2-0.3v-1l0.4-0.6v-0.1l-0.4-0.5v-1l0.3-1.6l-0.3-0.4v-0.5h0.6l0.6,0.1
			c0.2,0,0.7,0,1.3,0l0,0c1,0,1.9,0.1,2.8,0.4c0.2,0,0.5,0.1,0.7,0.2l0.1-0.1c0,0.1,0,0.1,0.1,0.1c0.1,0,0.2,0,0.3,0.1
			c0.1,0,0.1,0,0.2,0v0c0.1,0,0.2,0.1,0.3,0.1v0l0.9,0.3c0,0,0,0,0,0c0.2,0.1,0.3,0.1,0.5,0.2h0.1c0.1,0,0.2,0.1,0.2,0.1
			c0.3,0.1,0.6,0.3,0.8,0.5c0,0,0.3,0.3,0.8,0.7v0c0.5,0.4,0.9,0.9,1.3,1.3c0.1,0.1,0.1,0.2,0.2,0.2c0.5,0.5,0.5,0.5,0.3,0.4
			c0.3,0.4,0.6,0.8,0.8,1.1c0.7,1.9,1.4,2.9,2.3,2.9h0.4c1,0,1.5-0.5,1.5-1.5c0-0.5-0.3-1.1-0.8-1.6v-7.9c0-0.2-0.2-0.3-0.6-0.3
			H10.4L8.3,17H8.2l-2.4,1.2c-0.7-0.6-1.5-0.9-2.4-0.9H2.8c-0.8,0-1.4,0.2-2,0.6L1,18.5c1.8,0.2,2.7,0.8,2.7,1.6
			c-0.2,0-0.3,0.1-0.3,0.2l0.2,0.2h0.1l0.1-0.1v15.9h-1c-0.5,0-1.2,0.3-2,0.9l0.1,0.5c1,0.2,1.6,0.5,1.6,0.8c0.3,0,0.7,0.5,1.1,1.4
			L3.4,40c0.2,0.3,0.3,0.5,0.3,0.8v10.6c0,1.7-0.4,2.6-1.1,2.6c-1.8,0-2.7,0.3-2.7,1v1.7l0.2,0.2h15.5c0.2-0.1,0.3-0.3,0.3-0.6v-0.4
			c0-1.2-0.4-1.8-1.3-1.8h-1.3c-0.8,0-1.2-0.6-1.2-1.8v-5.8l0.1-0.5l-0.1-0.3v-5.7c0,0,0,0,0,0v-0.9c0,0,0.9-0.2,1.3-0.1
			c0,0,0,0,0,0h1.7l0,0l1,0l0,0c0.1,0,0.2,0,0.3,0l0,0l0,0c0.8,0.1,1.3,0.2,1.3,0.3c0.7,0,1.1,0.5,1.1,1.6L18.9,41l0.1,0.1h-0.1
			c0,0.3-0.1,0.6-0.4,0.9c0,0.4,0.2,0.6,0.5,0.6v0.1c-0.9,0.4-1.4,0.7-1.5,0.9v0.1c0,0.3,0.4,0.4,1.3,0.4h1c0,0,0.1,0,0.1,0
			c-0.6,1.4-0.9,3-0.9,4.6c0,5,1.8,9.4,5.4,13.1c4,3.5,8.4,5.8,13.3,7l0.4-0.1c0.3,0.3,0.8,0.4,1.4,0.5c0-0.1,0.2-0.2,0.5-0.3
			c0.2,0.4,0.6,0.6,1.2,0.6l0.6-0.1c0.2,0.2,0.7,0.4,1.7,0.5l0.1-0.1l-0.1-0.5v-0.1c0.4-0.1,0.7-0.2,1-0.4h0.3
			c0.6,0.4,1.5,0.8,2.7,1.1h0.1v-0.3c-0.4,0-0.6-0.2-0.8-0.5l0.2-0.9v-0.1l-0.3,0.1h-0.1l-0.1-0.1l0.1-0.5h0.2v0.2h0.1l0.5-0.1v-0.2
			l-0.1-0.1h0.4l0.5,0.1c0-0.2,0.1-0.4,0.4-0.4v0.1l0.1,0.1v0.1h-0.3v0.2c0.3,0,0.7,0.3,1.3,1H50l0.4-0.3h0.1c0,0.4,0.1,0.5,0.2,0.5
			h0.1l0.2-0.2l-0.3-0.4c0.2-0.4,0.5-0.5,1.1-0.5H52l0.3,0.3l0.5-0.1h0.1l0.1,0.3c-0.1,0-0.2,0.2-0.2,0.5c0,0.3,0.4,0.4,1.2,0.4h0.1
			l0.5-0.1l0.1,0.1H55c0.1-0.4,0.3-0.6,0.4-0.6h0.4v0.2l-0.5,0.6v0.1l1.1,0.4h0.1l0.4-0.4v-0.1l-0.1-0.1c0.6,0,1.2-0.1,1.9-0.4h0.1
			l0.5,1c1.3,0.1,2,0.2,2.1,0.3c0.2,0,0.3-0.1,0.3-0.2l0.2,0.2c1.2-0.1,1.8-0.3,1.8-0.4v-0.2C63.9,69,63.6,68.6,63.1,68.4z M58.7,35
			h0.1v0.2c0,0.2-0.3,0.3-0.9,0.5l-0.6-0.2C57.3,35.3,57.8,35.1,58.7,35z M38,24.9l0.8-0.1H39l0.3,0.3v0.2c0,0.4-0.1,0.6-0.4,0.8
			h-0.1c-0.2-0.6-0.4-0.9-0.8-0.9V24.9z M37.1,23.7h0.3l0.5,0.5v0.1l-0.5-0.1h-0.1l-0.4,0.3h-0.2C36.8,24,36.9,23.7,37.1,23.7z
			 M36.6,17.8l0.1-0.1h0.1v0.4h-0.2l-0.1-0.3H36.6z M36.6,32h0.1l0.5,0.5v0.2h-0.4c-0.3-0.2-0.5-0.3-0.5-0.5L36.6,32z M31.9,19.1
			c-0.3-0.1-0.5-0.3-0.6-0.5v-0.1h0.2l0.4,0.5V19.1z M33.5,33.9h-0.1l-0.6-0.2c0.2-0.4,0.4-0.6,0.6-0.6l0.1,0.1l-0.1,0.5v0.1
			L33.5,33.9z M35.2,27.8l-0.1,0.1l-0.2-0.2v-0.2h0.3V27.8z M35.9,26.2v0.1l-0.3,0.1c-0.4-0.1-0.6-0.3-0.6-0.5l0.2-0.4
			C35.6,25.4,35.9,25.7,35.9,26.2z M35.4,18.2h0.2v0.1h-0.2V18.2z M35.2,18.7l0.1-0.1c0.1,0,0.2,0.1,0.3,0.4v0.1h-0.2L35.2,19V18.7z
			 M34.6,20.9l0.2-0.2h0.1l0.2,0.6v0.1H35L34.6,21V20.9z M33.9,24.2h0.1c0.2,0.4,0.4,0.6,0.5,0.6v0.2h-0.1c-0.3-0.1-0.4-0.3-0.5-0.6
			V24.2z M32.7,24.2l0.2-0.2h0.3c0.4,0.3,0.6,0.6,0.6,1l-0.3,0.1l0.1,0.8v0.1h-0.3l-0.1-0.5c-0.4-0.3-0.5-0.6-0.5-1.1V24.2z
			 M32.1,28.9h0.2l0.2,0.2v0.3h-0.1l-0.3-0.4V28.9z M9.1,33.2L9,32.9c-0.2,0-0.3,0.1-0.3,0.4H8.4L8.1,33l1.3-0.3h0.2
			C9.6,33,9.4,33.1,9.1,33.2z M11.5,47.2V47h0.2L11.5,47.2z M19.6,40.7l-0.1,0.1l0.1,1l-0.2,0.5h-0.1l-0.1-0.4l0.2-1.6h0.1l0.1,0.3
			V40.7z M19.4,34.6v-0.2h0.1v0.2H19.4z M19.4,34.1l-0.1-0.5l0.1-0.5h0.2l0.1,0.8L19.4,34.1z M23.1,59.6h-0.2v-0.1h0.2V59.6z
			 M27.1,62h-0.2v-0.4l0.2-0.2h0.3C27.4,61.7,27.3,61.9,27.1,62z M28.3,62.2l0.3-0.3V62l-0.3,0.3V62.2z M32.3,65.3L30.8,65l-1.1,0.3
			c-0.3,0-0.4-0.2-0.4-0.6v-0.3l0.4-0.5l0.5,0.2c0,0.4,0.8,0.7,2.4,0.9v0.2l-0.2,0.2H32.3z M32.8,66.4h-0.2v-0.3h0.2V66.4z M33.2,65
			l0.1-0.4h0.1l0.5,0.1V65l-0.3,0.4C33.4,65.4,33.2,65.2,33.2,65z M34.3,67.1l-0.1,0.1h-0.1l-0.1-0.1l0.1-0.3h0.2V67.1z M35.4,66.9
			l-0.2,0.2v-0.2l0.2-0.2V66.9z M38.3,67.3h-0.1v-0.3h0.1V67.3z M39.2,66.6H39v-0.3h0.2V66.6z M39.7,67.5v-0.2h0.3l0.1,0.1v0.1
			l-0.1,0.1L39.7,67.5z M40.3,67.8V68l-0.2-0.2H40.3z M40.2,68.7h-0.1v-0.2l0.1-0.1h0.1l0.1,0.1L40.2,68.7z M42.9,69.5h-0.1
			l-0.3-0.3v-0.1l0.1-0.5c0.2,0.1,0.3,0.3,0.3,0.6V69.5z M46.5,68.7L46.3,69l-1.6-1h-0.1l-0.3,0.2c-0.4-0.4-0.8-0.6-1.1-0.6
			c0,0.3-0.2,0.6-0.6,0.8c-0.2-0.6-0.6-0.9-1.2-0.9l-0.2,0.3l-0.4-0.3v-0.2c0-0.1,0.2-0.2,0.5-0.3h0.1l-0.2-0.6l0.5-0.3l0.3,0.1
			c0.2,0.8,0.8,1.2,1.7,1.2l0.2-0.2v-0.1h-0.6l-0.2-0.2c0-0.1,0.2-0.3,0.6-0.3l0.2,0.3l0.5-0.2c0.4,0,0.8,0.4,1.1,1.3l1,0.8V68.7z
			 M53,67.2l-0.2,0.2h-0.1v-0.1l0.2-0.2H53V67.2z M53.9,68.7l-0.2-0.2h0.2V68.7z M53.4,68.2v-0.1L53.3,68v-0.2l0.6-0.6H54l0.1,0.1
			C54.1,67.7,53.9,68,53.4,68.2z M54.4,68.8h-0.2v-0.3h0.2V68.8z M57.6,68.8h-0.1c0-0.2-0.1-0.3-0.2-0.3H57l-0.6,0.2l-0.9-0.8h-0.1
			l-0.3,0.3c-0.5,0-0.8-0.2-0.9-0.6l1.1-0.5h0.1c0,0.2,0.1,0.3,0.2,0.3h0.3c0-0.2,0.1-0.3,0.2-0.3h0.1l0.3,0.2l-0.1,0.3
			c0,0.3,0.2,0.5,0.6,0.6l0.1-0.1V68c0.3,0,0.5,0.1,0.6,0.4L57.6,68.8z M61.4,68.4l-0.2-0.2c0-0.4,0.1-0.6,0.4-0.8h0.2l0.2,0.2v0.2
			C61.9,68.2,61.7,68.3,61.4,68.4z M62.6,69.2l-0.3,0.1l-0.2-0.2v-0.3l0.3-0.3h0.1l0.1,0.5V69.2z M136.5,19l0.1-0.1v-0.1l-0.1-0.1
			l-0.3,0.1L136.5,19L136.5,19z M56.9,70.5h0.8v-0.2h-0.8V70.5z M166.9,17.9c-2.2,0-4.2,0.9-6,2.8c-1.2,1.7-1.8,3-1.8,3.9h-0.4
			c-0.6,0-1,0.2-1.4,0.6v0.1c0,0.1,0.2,0.2,0.5,0.2c0.4,0.1,0.8,0.4,1.1,0.9c0.3,1.7,0.7,2.9,1.1,3.6c1.8,2.8,4.1,4.2,7.1,4.2h0.2
			c2.6,0,4.9-1.1,6.7-3.2c0.8-1,1.3-2.4,1.6-4.4l-0.8,0.4h-0.1l-0.3-0.1v-0.3c0.4-0.5,0.8-0.8,1-0.8h0.1l0.2,0.1l0.6-0.6
			c0.3,0,0.5-0.1,0.6-0.1c0.1,0.1,0.3,0.2,0.7,0.3c0.7,0.4,1.1,0.9,1.1,1.8v3.6c0,1-0.5,1.5-1.4,1.5h-1c-0.2,0.1-0.3,0.2-0.3,0.4
			v0.9l0.2,0.2h8.7c0.1,0,0.2-0.2,0.3-0.7c-0.1-0.6-0.3-0.9-0.6-0.9c-1,0-1.5-0.4-1.5-1.1v-4.4c0-0.5,0.3-1,1-1.4
			c0.5-0.1,0.7-0.2,0.7-0.3v-0.1c-0.4-0.4-0.8-0.6-1.3-0.6l-0.3,0.1l0.1-0.7h-0.1l-0.1-0.1h-0.6c-0.7,0-1.1-0.3-1.1-0.9l0.3-0.3
			c0.6,0,1.1,0.2,1.5,0.7l0.1-0.1c0.5-1.6,1.4-2.5,2.7-2.5h0.2c0.7,0,1.3,0.3,1.6,0.9c0.2,0.8,0.3,1.3,0.6,1.5v0.1
			c-0.2,0-0.3,0-0.3,0.1v1.2h-0.5c-0.8,0.2-1.1,0.4-1.1,0.6v0.1c1.1,0.4,1.6,0.8,1.6,1.3v3.6l0.1,0.1l-0.1,0.1v1l-0.1,0.4
			c0,0.4-0.5,0.6-1.5,0.6c-0.1,0-0.2,0.1-0.3,0.3v1.3l0.1,0.1l7.9,0.1c0.2,0,0.3-0.1,0.3-0.2v-1.2c0-0.2-0.3-0.3-1-0.3
			c-0.6,0-0.9-0.4-0.9-1.1v-4.4c0-0.6,0.4-1.1,1.3-1.5c0.3,0,0.4,0,0.4-0.1v-0.1c-0.4-0.4-0.9-0.6-1.6-0.6h-0.1v-0.2l0.2-1.5
			c0.5-1.3,1.3-2,2.5-2h0.2c1.4,0,2.1,1.1,2.1,3.4v0.4l-0.1-0.1c-0.7,0-1.3,0.2-1.6,0.6v0.1c1.1,0.4,1.7,0.9,1.7,1.6V32
			c0,0.5-0.5,0.7-1.5,0.7c-0.3,0-0.5,0.4-0.5,1.1c0,0.3,0.2,0.5,0.5,0.5h7.9l0.3-0.3v-1.1c0-0.2-0.3-0.3-0.9-0.3
			c-0.8,0-1.3-0.4-1.3-1.1l0.1-1.6v-2.7c0-0.6,0.3-1.1,0.9-1.5c0.5-0.1,0.8-0.2,0.8-0.3v-0.1c-0.3-0.4-0.8-0.6-1.6-0.6h-0.1
			l-0.1,0.1v-1.4c0-0.7-0.1-1.3-0.2-1.7c-0.7-2.4-2.1-3.5-4.3-3.5h-0.3c-1.6,0-3.1,0.8-4.4,2.5l-0.4,0.9c-0.2,0-0.3-0.1-0.4-0.3
			l0.1-0.3v-0.1c-0.5-1.2-1.2-2-1.9-2.3l-0.2,0.1h-0.1l0.1-0.2c-0.2-0.3-0.8-0.4-1.8-0.4h-0.8l-0.1,0.1l0.1,0.1l-0.2,0.4v0.1
			l0.2-0.1l0.3,0.1c0,0.1-0.1,0.1-0.4,0.2c-0.1,0-0.1-0.1-0.1-0.2h-0.1l-0.2,0.1l-0.1-0.1v-0.4c-1.4,0-2.7,1.1-3.8,3.2h-0.1v-3
			l-0.1-0.1h-0.4l-0.4,0.4h-0.1v-0.3l0.1-0.1l-0.1-0.1l-3-0.1h-0.6v0.1h0.1v0.2h-0.1c-0.3,0-0.4-0.1-0.4-0.3l-0.9,0.1l0.1,0.3v0.1
			l-0.1,0.1c-0.1,0-0.2-0.1-0.2-0.3v-0.1c-0.5,0-0.7,0.1-0.7,0.4c-0.1,0-0.2,0-0.2,0.1v0.6l0.1,0.1l1.8-0.2l0.3,0.1l1.1-0.6l1.8,0.4
			l0.3-0.1c0.8,0.3,1.1,0.5,1.1,0.6c0,0.2-0.1,0.3-0.2,0.4l0.1,0.4c-0.2,0.4-0.4,0.6-0.4,0.6H182l-0.3-0.2l-0.4,0.1
			c-0.3,0-1.3-0.4-3.1-1.3h-0.1l-0.6,0.1V20c0.4,0,0.6,0.1,0.6,0.3c0.3,0,0.5,1.3,0.5,3.9v0.6l-0.1,0.1l-0.1-0.1
			c-0.6,0-1.1,0.1-1.4,0.4c-0.3-0.4-0.8-0.6-1.3-0.6h-0.4c0-0.8-0.4-1.9-1.2-3.2c-0.9-1.5-2.5-2.7-4.6-3.3l-0.1,0.1l-0.3-0.1
			c-0.7,0.4-1.2,0.6-1.4,0.6h-0.1c-0.5,0-0.9-0.1-1.1-0.3L166.9,17.9L166.9,17.9z M198.4,23.1L198.4,23.1l0.1,0.3h-0.1V23.1z
			 M197.8,22.9l0.1-0.1h0.3v0.1l-0.3,0.1L197.8,22.9L197.8,22.9z M196.1,19.7L196.1,19.7l0.1,0.3h-0.1V19.7z M192.5,24.9L192.5,24.9
			c0.4,0,0.5,0.1,0.6,0.2v0.1l-0.1,0.1C192.6,25.2,192.5,25.1,192.5,24.9L192.5,24.9z M192.1,23.1v0.1c0,0.1-0.1,0.3-0.2,0.4
			c-0.2,0-0.4-0.1-0.4-0.3v-0.2c0-0.1,0.1-0.2,0.3-0.2L192.1,23.1z M191.4,21.1L191.4,21.1l0.1,0.2h-0.1V21.1z M190.9,22.3
			c0.2,0.1,0.5,0.2,0.8,0.4c-0.1,0.2-0.2,0.3-0.4,0.3l-0.2-0.1l0.1-0.3v-0.1l-0.1-0.1H191l-0.1,0.1V22.3L190.9,22.3z M190.9,24.5
			h0.2l0.1,0.1c0.1-0.2,0.2-0.3,0.3-0.3c0.1,0,0.2,0,0.2,0.1v0.1l-0.3,0.3l-0.3-0.2h-0.1c0,0.2-0.1,0.4-0.3,0.4h-0.1l-0.1-0.1
			C190.7,24.6,190.8,24.5,190.9,24.5z M189.5,22.1h0.3l0.1,0.1l-0.1,0.1h-0.2V22.1z M189.2,22.4h0.1v0.1L189.2,22.4L189.2,22.4z
			 M188.9,24.3L188.9,24.3l-0.2,0.1c-0.3-0.1-0.4-0.2-0.4-0.3v-0.1h0.2C188.7,24.1,188.9,24.2,188.9,24.3z M188.5,19.9h0.1l-0.1,0.1
			V19.9z M188.3,19.5L188.3,19.5l0.1,0.3h-0.1V19.5z M188.3,20.3L188.3,20.3l0.2,0.1v0.2h-0.1l-0.1-0.1V20.3z M188,20l0.1-0.1h0.1
			l-0.1,0.2L188,20L188,20z M188.2,21c0.3,0.3,0.5,0.4,0.6,0.4v0.2c0,0.2-0.1,0.3-0.3,0.4c-0.2,0-0.3-0.1-0.4-0.3H188l-0.1,0.1
			c-0.1-0.1-0.3-0.2-0.3-0.4L188.2,21z M187.5,19.5L187.5,19.5l0.1,0.3h-0.1V19.5z M187.2,20.1v0.2l-0.1,0.1h-0.2l-0.3-0.2
			c0-0.1,0.2-0.1,0.5-0.3L187.2,20.1L187.2,20.1z M186.7,18.7h0.1v0.1L186.7,18.7L186.7,18.7z M186.9,19l0.2,0.1v0.1
			c-0.1,0-0.2,0-0.2,0.1l-0.4-0.1C186.5,19.1,186.6,19.1,186.9,19z M186,20.2L186,20.2v0.3h-0.3C185.8,20.4,185.9,20.3,186,20.2z
			 M176.9,19.4h-0.2l-0.1-0.2l0.3-0.3L177,19C177,19.2,177,19.3,176.9,19.4z M182.6,22.4L182.6,22.4l0.3,0.3h-0.1l-0.1,0.1l-0.1-0.1
			V22.4z M182.2,21.5L182.2,21.5l0.1,0.1l-0.2,0.3H182l-0.1-0.1C182.1,21.6,182.1,21.5,182.2,21.5z M166.5,19.1l0.1,0.1v0.2h-0.1
			l-0.1-0.2V19.1z M161.4,26.3l-0.4-0.1h-0.8v-0.3l1-0.3c0.2,0,0.4,0.2,0.4,0.5C161.7,26.2,161.6,26.2,161.4,26.3z M167.3,19.5
			c0.9,0,1.6,0.4,2.2,1.1c0.8,1.4,1.2,2.8,1.2,4.1h-0.3c-0.6,0-1,0.2-1.4,0.6v0.1l0.2,0.2c0.7,0,1.2,0.4,1.5,1.3l-0.1,1.5
			c-0.4,2.9-1.5,4.4-3.3,4.4l-0.8-0.1c-1.6-0.6-2.5-2.3-2.6-5.2v-0.4c0-0.4,0.2-0.7,0.6-1.1l1.1-0.4c-0.2-0.5-0.7-0.8-1.4-0.8h-0.3
			l0.1-0.9l-0.1-0.1l-0.9,0.8v-0.2c0-0.7,0.4-1.1,1.1-1.3C164.7,20.7,165.7,19.5,167.3,19.5z M55.4,70.5v0.1h0.6l0.5-0.1v-0.2h-1
			L55.4,70.5z"/>
	</g>
</g>
</svg>
